G04 #@! TF.GenerationSoftware,KiCad,Pcbnew,(2017-01-27 revision d0c46a8)-makepkg*
G04 #@! TF.CreationDate,2017-03-06T20:45:13-05:00*
G04 #@! TF.ProjectId,reflowoven,7265666C6F776F76656E2E6B69636164,rev?*
G04 #@! TF.FileFunction,Copper,L2,Bot,Signal*
G04 #@! TF.FilePolarity,Positive*
%FSLAX46Y46*%
G04 Gerber Fmt 4.6, Leading zero omitted, Abs format (unit mm)*
G04 Created by KiCad (PCBNEW (2017-01-27 revision d0c46a8)-makepkg) date 03/06/17 20:45:13*
%MOMM*%
%LPD*%
G01*
G04 APERTURE LIST*
%ADD10C,0.150000*%
%ADD11O,1.800000X1.800000*%
%ADD12R,1.800000X1.800000*%
%ADD13C,2.700000*%
%ADD14O,1.700000X1.700000*%
%ADD15R,1.700000X1.700000*%
%ADD16C,1.500000*%
%ADD17C,2.900000*%
%ADD18C,1.800000*%
%ADD19C,1.520000*%
%ADD20C,1.000000*%
%ADD21C,0.889000*%
%ADD22C,0.228600*%
%ADD23C,1.270000*%
%ADD24C,0.254000*%
G04 APERTURE END LIST*
D10*
D11*
X158902400Y-150469600D03*
X161442400Y-150469600D03*
D12*
X163982400Y-150469600D03*
D13*
X155083200Y-199637200D03*
X147583200Y-196137200D03*
X147583200Y-179737200D03*
X155083200Y-179737200D03*
X140325800Y-179889600D03*
X132825800Y-179889600D03*
X132825800Y-196289600D03*
X140325800Y-199789600D03*
D14*
X187756800Y-171881800D03*
X185216800Y-171881800D03*
X182676800Y-171881800D03*
X180136800Y-171881800D03*
X177596800Y-171881800D03*
D15*
X175056800Y-171881800D03*
D13*
X185410800Y-179737200D03*
X177910800Y-179737200D03*
X177910800Y-196137200D03*
X185410800Y-199637200D03*
D16*
X185978800Y-163418400D03*
X185978800Y-159918400D03*
X185851800Y-151310400D03*
X185851800Y-154810400D03*
D17*
X178902400Y-208026000D03*
X173902400Y-208026000D03*
X168902400Y-208026000D03*
X163902400Y-208026000D03*
X158902400Y-208026000D03*
X153902400Y-208026000D03*
X148902400Y-208026000D03*
X143902400Y-208026000D03*
D13*
X170120000Y-179737200D03*
X162620000Y-179737200D03*
X162620000Y-196137200D03*
X170120000Y-199637200D03*
D18*
X151434800Y-150901400D03*
D12*
X153974800Y-150901400D03*
D13*
X137209800Y-168102800D03*
X137209800Y-156102800D03*
D19*
X139909800Y-160832800D03*
X139909800Y-163372800D03*
X141909800Y-163372800D03*
X141909800Y-160832800D03*
D18*
X148285200Y-150952200D03*
D12*
X145745200Y-150952200D03*
D20*
X167182800Y-159715200D03*
X167182800Y-161215200D03*
D21*
X157594300Y-165608000D03*
X157416500Y-157276800D03*
X177190400Y-168300400D03*
X164642800Y-153949400D03*
X150825200Y-156159200D03*
X161112200Y-162052000D03*
X161950400Y-161188400D03*
X151320500Y-170751500D03*
X155321000Y-162471100D03*
X144741900Y-169418000D03*
X160422797Y-155807973D03*
X165105637Y-157430037D03*
X170281600Y-156883100D03*
X171170600Y-160985200D03*
X179971700Y-163588700D03*
X178879500Y-156972000D03*
X178308000Y-149428200D03*
X170766600Y-150342600D03*
X157378400Y-169418000D03*
X149250400Y-163499800D03*
X147916899Y-162255200D03*
X170103800Y-151447500D03*
D22*
X157416500Y-165430200D02*
X157594300Y-165608000D01*
X157416500Y-157276800D02*
X157416500Y-165430200D01*
X164642800Y-155752800D02*
X177190400Y-168300400D01*
X164642800Y-153949400D02*
X164642800Y-155752800D01*
X159689800Y-156159200D02*
X159689800Y-160629600D01*
X159689800Y-160629600D02*
X161112200Y-162052000D01*
X150825200Y-156159200D02*
X159689800Y-156159200D01*
X171069000Y-170307000D02*
X161950400Y-161188400D01*
X161848800Y-161086800D02*
X161950400Y-161188400D01*
X182676800Y-171881800D02*
X181102000Y-170307000D01*
X181102000Y-170307000D02*
X171069000Y-170307000D01*
D23*
X132825800Y-196289600D02*
X143902400Y-207366200D01*
X143902400Y-207366200D02*
X143902400Y-208026000D01*
X140325800Y-199789600D02*
X140666000Y-199789600D01*
X140666000Y-199789600D02*
X148902400Y-208026000D01*
X147583200Y-196137200D02*
X147583200Y-201706800D01*
X147583200Y-201706800D02*
X152452401Y-206576001D01*
X152452401Y-206576001D02*
X153902400Y-208026000D01*
X155083200Y-199637200D02*
X155083200Y-204206800D01*
X155083200Y-204206800D02*
X158902400Y-208026000D01*
X170120000Y-199637200D02*
X170120000Y-206808400D01*
X170120000Y-206808400D02*
X168902400Y-208026000D01*
X177910800Y-196137200D02*
X177910800Y-204017600D01*
X177910800Y-204017600D02*
X173902400Y-208026000D01*
X185410800Y-199637200D02*
X185410800Y-201517600D01*
X185410800Y-201517600D02*
X178902400Y-208026000D01*
X162620000Y-196137200D02*
X162620000Y-206743600D01*
X162620000Y-206743600D02*
X163902400Y-208026000D01*
X147916899Y-155683181D02*
X147916899Y-162255200D01*
X147916899Y-162255200D02*
X147916899Y-172570899D01*
X155083200Y-179737200D02*
X151774400Y-176428400D01*
X151774400Y-176428400D02*
X143787000Y-176428400D01*
X141675799Y-178539601D02*
X140325800Y-179889600D01*
X143787000Y-176428400D02*
X141675799Y-178539601D01*
X170120000Y-179737200D02*
X172359001Y-177498199D01*
X172359001Y-177498199D02*
X183171799Y-177498199D01*
X183171799Y-177498199D02*
X184060801Y-178387201D01*
X184060801Y-178387201D02*
X185410800Y-179737200D01*
X155083200Y-179737200D02*
X157630000Y-177190400D01*
X157630000Y-177190400D02*
X167573200Y-177190400D01*
X167573200Y-177190400D02*
X168770001Y-178387201D01*
X168770001Y-178387201D02*
X170120000Y-179737200D01*
X162763200Y-153858800D02*
X149741280Y-153858800D01*
X149741280Y-153858800D02*
X147916899Y-155683181D01*
X147916899Y-172570899D02*
X153733201Y-178387201D01*
X153733201Y-178387201D02*
X155083200Y-179737200D01*
X163982400Y-150469600D02*
X163982400Y-152639600D01*
X163982400Y-152639600D02*
X162763200Y-153858800D01*
D22*
X166088900Y-151447500D02*
X170103800Y-151447500D01*
X163982400Y-150469600D02*
X165111000Y-150469600D01*
X165111000Y-150469600D02*
X166088900Y-151447500D01*
D24*
G36*
X190525400Y-191960500D02*
X167563800Y-191960500D01*
X167515199Y-191970167D01*
X167510757Y-191973135D01*
X129032162Y-191935225D01*
X129047060Y-180232407D01*
X131094500Y-180232407D01*
X131357474Y-180868852D01*
X131843987Y-181356214D01*
X132479972Y-181620299D01*
X133168607Y-181620900D01*
X133805052Y-181357926D01*
X134292414Y-180871413D01*
X134556499Y-180235428D01*
X134556501Y-180232407D01*
X138594500Y-180232407D01*
X138857474Y-180868852D01*
X139343987Y-181356214D01*
X139979972Y-181620299D01*
X140668607Y-181620900D01*
X141305052Y-181357926D01*
X141792414Y-180871413D01*
X142056499Y-180235428D01*
X142056634Y-180080007D01*
X145851900Y-180080007D01*
X146114874Y-180716452D01*
X146601387Y-181203814D01*
X147237372Y-181467899D01*
X147926007Y-181468500D01*
X148562452Y-181205526D01*
X149049814Y-180719013D01*
X149313899Y-180083028D01*
X149314500Y-179394393D01*
X149051526Y-178757948D01*
X148565013Y-178270586D01*
X147929028Y-178006501D01*
X147240393Y-178005900D01*
X146603948Y-178268874D01*
X146116586Y-178755387D01*
X145852501Y-179391372D01*
X145851900Y-180080007D01*
X142056634Y-180080007D01*
X142057058Y-179595183D01*
X142394220Y-179258021D01*
X142394222Y-179258018D01*
X144207841Y-177444400D01*
X151353559Y-177444400D01*
X152816946Y-178907787D01*
X153352456Y-179443296D01*
X153351900Y-180080007D01*
X153614874Y-180716452D01*
X154101387Y-181203814D01*
X154737372Y-181467899D01*
X155426007Y-181468500D01*
X156062452Y-181205526D01*
X156549814Y-180719013D01*
X156813899Y-180083028D01*
X156814458Y-179442783D01*
X158050841Y-178206400D01*
X161791946Y-178206400D01*
X161640748Y-178268874D01*
X161153386Y-178755387D01*
X160889301Y-179391372D01*
X160888700Y-180080007D01*
X161151674Y-180716452D01*
X161638187Y-181203814D01*
X162274172Y-181467899D01*
X162962807Y-181468500D01*
X163599252Y-181205526D01*
X164086614Y-180719013D01*
X164350699Y-180083028D01*
X164351300Y-179394393D01*
X164088326Y-178757948D01*
X163601813Y-178270586D01*
X163447237Y-178206400D01*
X167152360Y-178206400D01*
X168051580Y-179105621D01*
X168051583Y-179105623D01*
X168389256Y-179443296D01*
X168388700Y-180080007D01*
X168651674Y-180716452D01*
X169138187Y-181203814D01*
X169774172Y-181467899D01*
X170462807Y-181468500D01*
X171099252Y-181205526D01*
X171586614Y-180719013D01*
X171850699Y-180083028D01*
X171851258Y-179442783D01*
X172779842Y-178514199D01*
X176685795Y-178514199D01*
X176444186Y-178755387D01*
X176180101Y-179391372D01*
X176179500Y-180080007D01*
X176442474Y-180716452D01*
X176928987Y-181203814D01*
X177564972Y-181467899D01*
X178253607Y-181468500D01*
X178890052Y-181205526D01*
X179377414Y-180719013D01*
X179641499Y-180083028D01*
X179642100Y-179394393D01*
X179379126Y-178757948D01*
X179135802Y-178514199D01*
X182750959Y-178514199D01*
X183342381Y-179105622D01*
X183342384Y-179105624D01*
X183680056Y-179443296D01*
X183679500Y-180080007D01*
X183942474Y-180716452D01*
X184428987Y-181203814D01*
X185064972Y-181467899D01*
X185753607Y-181468500D01*
X186390052Y-181205526D01*
X186877414Y-180719013D01*
X187141499Y-180083028D01*
X187142100Y-179394393D01*
X186879126Y-178757948D01*
X186392613Y-178270586D01*
X185756628Y-178006501D01*
X185116382Y-178005942D01*
X184779224Y-177668784D01*
X184779222Y-177668781D01*
X183890219Y-176779779D01*
X183560606Y-176559537D01*
X183496099Y-176546706D01*
X183171799Y-176482199D01*
X172359001Y-176482199D01*
X171970194Y-176559537D01*
X171640581Y-176779778D01*
X170413904Y-178006456D01*
X169825582Y-178005942D01*
X169488423Y-177668783D01*
X169488421Y-177668780D01*
X168291620Y-176471980D01*
X167962007Y-176251738D01*
X167897500Y-176238907D01*
X167573200Y-176174400D01*
X157630000Y-176174400D01*
X157305700Y-176238907D01*
X157241193Y-176251738D01*
X156911579Y-176471980D01*
X155377104Y-178006456D01*
X154788783Y-178005942D01*
X154149903Y-177367062D01*
X148932899Y-172150059D01*
X148932899Y-156322682D01*
X149999557Y-156322682D01*
X150124967Y-156626198D01*
X150356981Y-156858617D01*
X150660277Y-156984557D01*
X150988682Y-156984843D01*
X151292198Y-156859433D01*
X151497489Y-156654500D01*
X156871433Y-156654500D01*
X156717083Y-156808581D01*
X156591143Y-157111877D01*
X156590857Y-157440282D01*
X156716267Y-157743798D01*
X156921200Y-157949089D01*
X156921200Y-165113510D01*
X156894883Y-165139781D01*
X156768943Y-165443077D01*
X156768657Y-165771482D01*
X156894067Y-166074998D01*
X157126081Y-166307417D01*
X157429377Y-166433357D01*
X157757782Y-166433643D01*
X158061298Y-166308233D01*
X158293717Y-166076219D01*
X158419657Y-165772923D01*
X158419943Y-165444518D01*
X158294533Y-165141002D01*
X158062519Y-164908583D01*
X157911800Y-164845999D01*
X157911800Y-157948780D01*
X158115917Y-157745019D01*
X158241857Y-157441723D01*
X158242143Y-157113318D01*
X158116733Y-156809802D01*
X157961702Y-156654500D01*
X159194500Y-156654500D01*
X159194500Y-160629600D01*
X159232202Y-160819144D01*
X159339570Y-160979830D01*
X160286808Y-161927068D01*
X160286557Y-162215482D01*
X160411967Y-162518998D01*
X160643981Y-162751417D01*
X160947277Y-162877357D01*
X161275682Y-162877643D01*
X161579198Y-162752233D01*
X161811617Y-162520219D01*
X161937557Y-162216923D01*
X161937734Y-162013890D01*
X162075550Y-162014010D01*
X170718770Y-170657230D01*
X170879457Y-170764598D01*
X171069000Y-170802300D01*
X173901922Y-170802300D01*
X173847906Y-170883141D01*
X173818336Y-171031800D01*
X173818336Y-172731800D01*
X173847906Y-172880459D01*
X173932114Y-173006486D01*
X174058141Y-173090694D01*
X174206800Y-173120264D01*
X175906800Y-173120264D01*
X176055459Y-173090694D01*
X176181486Y-173006486D01*
X176265694Y-172880459D01*
X176295264Y-172731800D01*
X176295264Y-171031800D01*
X176265694Y-170883141D01*
X176211678Y-170802300D01*
X177003126Y-170802300D01*
X176726352Y-170987235D01*
X176459504Y-171386600D01*
X176365800Y-171857683D01*
X176365800Y-171905917D01*
X176459504Y-172377000D01*
X176726352Y-172776365D01*
X177125717Y-173043213D01*
X177596800Y-173136917D01*
X178067883Y-173043213D01*
X178467248Y-172776365D01*
X178734096Y-172377000D01*
X178827800Y-171905917D01*
X178827800Y-171857683D01*
X178734096Y-171386600D01*
X178467248Y-170987235D01*
X178190474Y-170802300D01*
X179543126Y-170802300D01*
X179266352Y-170987235D01*
X178999504Y-171386600D01*
X178905800Y-171857683D01*
X178905800Y-171905917D01*
X178999504Y-172377000D01*
X179266352Y-172776365D01*
X179665717Y-173043213D01*
X180136800Y-173136917D01*
X180607883Y-173043213D01*
X181007248Y-172776365D01*
X181274096Y-172377000D01*
X181367800Y-171905917D01*
X181367800Y-171857683D01*
X181274096Y-171386600D01*
X181007248Y-170987235D01*
X180730474Y-170802300D01*
X180896840Y-170802300D01*
X181529821Y-171435281D01*
X181445800Y-171857683D01*
X181445800Y-171905917D01*
X181539504Y-172377000D01*
X181806352Y-172776365D01*
X182205717Y-173043213D01*
X182676800Y-173136917D01*
X183147883Y-173043213D01*
X183547248Y-172776365D01*
X183814096Y-172377000D01*
X183821883Y-172337853D01*
X184021617Y-172763158D01*
X184449876Y-173153445D01*
X184859910Y-173323276D01*
X185089800Y-173201955D01*
X185089800Y-172008800D01*
X185069800Y-172008800D01*
X185069800Y-171754800D01*
X185089800Y-171754800D01*
X185089800Y-170561645D01*
X185343800Y-170561645D01*
X185343800Y-171754800D01*
X185363800Y-171754800D01*
X185363800Y-172008800D01*
X185343800Y-172008800D01*
X185343800Y-173201955D01*
X185573690Y-173323276D01*
X185983724Y-173153445D01*
X186411983Y-172763158D01*
X186611717Y-172337853D01*
X186619504Y-172377000D01*
X186886352Y-172776365D01*
X187285717Y-173043213D01*
X187756800Y-173136917D01*
X188227883Y-173043213D01*
X188627248Y-172776365D01*
X188894096Y-172377000D01*
X188987800Y-171905917D01*
X188987800Y-171857683D01*
X188894096Y-171386600D01*
X188627248Y-170987235D01*
X188227883Y-170720387D01*
X187756800Y-170626683D01*
X187285717Y-170720387D01*
X186886352Y-170987235D01*
X186619504Y-171386600D01*
X186611717Y-171425747D01*
X186411983Y-171000442D01*
X185983724Y-170610155D01*
X185573690Y-170440324D01*
X185343800Y-170561645D01*
X185089800Y-170561645D01*
X184859910Y-170440324D01*
X184449876Y-170610155D01*
X184021617Y-171000442D01*
X183821883Y-171425747D01*
X183814096Y-171386600D01*
X183547248Y-170987235D01*
X183147883Y-170720387D01*
X182676800Y-170626683D01*
X182214166Y-170718706D01*
X181452230Y-169956770D01*
X181291544Y-169849402D01*
X181102000Y-169811700D01*
X171274160Y-169811700D01*
X162775792Y-161313332D01*
X162776043Y-161024918D01*
X162650633Y-160721402D01*
X162418619Y-160488983D01*
X162115323Y-160363043D01*
X161786918Y-160362757D01*
X161483402Y-160488167D01*
X161250983Y-160720181D01*
X161125043Y-161023477D01*
X161124866Y-161226510D01*
X160987050Y-161226390D01*
X160185100Y-160424440D01*
X160185100Y-156159200D01*
X160147398Y-155969657D01*
X160040030Y-155808970D01*
X159879343Y-155701602D01*
X159689800Y-155663900D01*
X151497180Y-155663900D01*
X151293419Y-155459783D01*
X150990123Y-155333843D01*
X150661718Y-155333557D01*
X150358202Y-155458967D01*
X150125783Y-155690981D01*
X149999843Y-155994277D01*
X149999557Y-156322682D01*
X148932899Y-156322682D01*
X148932899Y-156104021D01*
X150162121Y-154874800D01*
X162763200Y-154874800D01*
X163087500Y-154810293D01*
X163152007Y-154797462D01*
X163481620Y-154577220D01*
X163854816Y-154204024D01*
X163942567Y-154416398D01*
X164147500Y-154621689D01*
X164147500Y-155752800D01*
X164185202Y-155942344D01*
X164292570Y-156103030D01*
X167023600Y-158834060D01*
X167008327Y-158834047D01*
X166684405Y-158967889D01*
X166436360Y-159215502D01*
X166301953Y-159539189D01*
X166301647Y-159889673D01*
X166435489Y-160213595D01*
X166683102Y-160461640D01*
X166691295Y-160465042D01*
X166684405Y-160467889D01*
X166436360Y-160715502D01*
X166301953Y-161039189D01*
X166301647Y-161389673D01*
X166435489Y-161713595D01*
X166683102Y-161961640D01*
X167006789Y-162096047D01*
X167357273Y-162096353D01*
X167681195Y-161962511D01*
X167929240Y-161714898D01*
X168063647Y-161391211D01*
X168063953Y-161040727D01*
X167930111Y-160716805D01*
X167682498Y-160468760D01*
X167674305Y-160465358D01*
X167681195Y-160462511D01*
X167929240Y-160214898D01*
X168063647Y-159891211D01*
X168063662Y-159874122D01*
X176365008Y-168175468D01*
X176364757Y-168463882D01*
X176490167Y-168767398D01*
X176722181Y-168999817D01*
X177025477Y-169125757D01*
X177353882Y-169126043D01*
X177657398Y-169000633D01*
X177889817Y-168768619D01*
X178015757Y-168465323D01*
X178016043Y-168136918D01*
X177890633Y-167833402D01*
X177658619Y-167600983D01*
X177355323Y-167475043D01*
X177065250Y-167474790D01*
X173232843Y-163642383D01*
X184847604Y-163642383D01*
X185019425Y-164058223D01*
X185337303Y-164376656D01*
X185752843Y-164549204D01*
X186202783Y-164549596D01*
X186618623Y-164377775D01*
X186937056Y-164059897D01*
X187109604Y-163644357D01*
X187109996Y-163194417D01*
X186938175Y-162778577D01*
X186620297Y-162460144D01*
X186204757Y-162287596D01*
X185754817Y-162287204D01*
X185338977Y-162459025D01*
X185020544Y-162776903D01*
X184847996Y-163192443D01*
X184847604Y-163642383D01*
X173232843Y-163642383D01*
X169732843Y-160142383D01*
X184847604Y-160142383D01*
X185019425Y-160558223D01*
X185337303Y-160876656D01*
X185752843Y-161049204D01*
X186202783Y-161049596D01*
X186618623Y-160877775D01*
X186937056Y-160559897D01*
X187109604Y-160144357D01*
X187109996Y-159694417D01*
X186938175Y-159278577D01*
X186620297Y-158960144D01*
X186204757Y-158787596D01*
X185754817Y-158787204D01*
X185338977Y-158959025D01*
X185020544Y-159276903D01*
X184847996Y-159692443D01*
X184847604Y-160142383D01*
X169732843Y-160142383D01*
X165138100Y-155547640D01*
X165138100Y-155034383D01*
X184720604Y-155034383D01*
X184892425Y-155450223D01*
X185210303Y-155768656D01*
X185625843Y-155941204D01*
X186075783Y-155941596D01*
X186491623Y-155769775D01*
X186810056Y-155451897D01*
X186982604Y-155036357D01*
X186982996Y-154586417D01*
X186811175Y-154170577D01*
X186493297Y-153852144D01*
X186077757Y-153679596D01*
X185627817Y-153679204D01*
X185211977Y-153851025D01*
X184893544Y-154168903D01*
X184720996Y-154584443D01*
X184720604Y-155034383D01*
X165138100Y-155034383D01*
X165138100Y-154621380D01*
X165342217Y-154417619D01*
X165468157Y-154114323D01*
X165468443Y-153785918D01*
X165343033Y-153482402D01*
X165111019Y-153249983D01*
X164846422Y-153140112D01*
X164921062Y-153028407D01*
X164933893Y-152963900D01*
X164998400Y-152639600D01*
X164998400Y-151734990D01*
X165031059Y-151728494D01*
X165157086Y-151644286D01*
X165241294Y-151518259D01*
X165270864Y-151369600D01*
X165270864Y-151329924D01*
X165738670Y-151797730D01*
X165899357Y-151905098D01*
X166088900Y-151942800D01*
X169431820Y-151942800D01*
X169635581Y-152146917D01*
X169938877Y-152272857D01*
X170267282Y-152273143D01*
X170570798Y-152147733D01*
X170803217Y-151915719D01*
X170929157Y-151612423D01*
X170929224Y-151534383D01*
X184720604Y-151534383D01*
X184892425Y-151950223D01*
X185210303Y-152268656D01*
X185625843Y-152441204D01*
X186075783Y-152441596D01*
X186491623Y-152269775D01*
X186810056Y-151951897D01*
X186982604Y-151536357D01*
X186982996Y-151086417D01*
X186811175Y-150670577D01*
X186493297Y-150352144D01*
X186077757Y-150179596D01*
X185627817Y-150179204D01*
X185211977Y-150351025D01*
X184893544Y-150668903D01*
X184720996Y-151084443D01*
X184720604Y-151534383D01*
X170929224Y-151534383D01*
X170929443Y-151284018D01*
X170804033Y-150980502D01*
X170572019Y-150748083D01*
X170268723Y-150622143D01*
X169940318Y-150621857D01*
X169636802Y-150747267D01*
X169431511Y-150952200D01*
X166294060Y-150952200D01*
X165461230Y-150119370D01*
X165300544Y-150012002D01*
X165270864Y-150006098D01*
X165270864Y-149569600D01*
X165241294Y-149420941D01*
X165157086Y-149294914D01*
X165031059Y-149210706D01*
X164882400Y-149181136D01*
X163082400Y-149181136D01*
X162933741Y-149210706D01*
X162807714Y-149294914D01*
X162723506Y-149420941D01*
X162693936Y-149569600D01*
X162693936Y-150195308D01*
X162650986Y-149979383D01*
X162373300Y-149563796D01*
X161957713Y-149286110D01*
X161467496Y-149188600D01*
X161417304Y-149188600D01*
X160927087Y-149286110D01*
X160511500Y-149563796D01*
X160233814Y-149979383D01*
X160172400Y-150288133D01*
X160110986Y-149979383D01*
X159833300Y-149563796D01*
X159417713Y-149286110D01*
X158927496Y-149188600D01*
X158877304Y-149188600D01*
X158387087Y-149286110D01*
X157971500Y-149563796D01*
X157693814Y-149979383D01*
X157596304Y-150469600D01*
X157693814Y-150959817D01*
X157971500Y-151375404D01*
X158387087Y-151653090D01*
X158877304Y-151750600D01*
X158927496Y-151750600D01*
X159417713Y-151653090D01*
X159833300Y-151375404D01*
X160110986Y-150959817D01*
X160172400Y-150651067D01*
X160233814Y-150959817D01*
X160511500Y-151375404D01*
X160927087Y-151653090D01*
X161417304Y-151750600D01*
X161467496Y-151750600D01*
X161957713Y-151653090D01*
X162373300Y-151375404D01*
X162650986Y-150959817D01*
X162693936Y-150743892D01*
X162693936Y-151369600D01*
X162723506Y-151518259D01*
X162807714Y-151644286D01*
X162933741Y-151728494D01*
X162966400Y-151734990D01*
X162966400Y-152218759D01*
X162342360Y-152842800D01*
X149741280Y-152842800D01*
X149352474Y-152920138D01*
X149352472Y-152920139D01*
X149352473Y-152920139D01*
X149022859Y-153140380D01*
X147198479Y-154964761D01*
X146978237Y-155294374D01*
X146970443Y-155333557D01*
X146900899Y-155683181D01*
X146900899Y-172570899D01*
X146939142Y-172763158D01*
X146978237Y-172959706D01*
X147198479Y-173289319D01*
X149321560Y-175412400D01*
X143787000Y-175412400D01*
X143462700Y-175476907D01*
X143398193Y-175489738D01*
X143068579Y-175709980D01*
X140957382Y-177821178D01*
X140957379Y-177821180D01*
X140619704Y-178158856D01*
X139982993Y-178158300D01*
X139346548Y-178421274D01*
X138859186Y-178907787D01*
X138595101Y-179543772D01*
X138594500Y-180232407D01*
X134556501Y-180232407D01*
X134557100Y-179546793D01*
X134294126Y-178910348D01*
X133807613Y-178422986D01*
X133171628Y-178158901D01*
X132482993Y-178158300D01*
X131846548Y-178421274D01*
X131359186Y-178907787D01*
X131095101Y-179543772D01*
X131094500Y-180232407D01*
X129047060Y-180232407D01*
X129057239Y-172237400D01*
X140868400Y-172237400D01*
X140917001Y-172227733D01*
X140958203Y-172200203D01*
X140985733Y-172159001D01*
X140995400Y-172110400D01*
X140995400Y-165608000D01*
X140985733Y-165559399D01*
X140958203Y-165518197D01*
X140925196Y-165494408D01*
X138658600Y-164361110D01*
X138658600Y-164351564D01*
X139110641Y-164351564D01*
X139179859Y-164593542D01*
X139702580Y-164779955D01*
X140256849Y-164752141D01*
X140639741Y-164593542D01*
X140708959Y-164351564D01*
X139909800Y-163552405D01*
X139110641Y-164351564D01*
X138658600Y-164351564D01*
X138658600Y-164029209D01*
X138689058Y-164102741D01*
X138931036Y-164171959D01*
X139730195Y-163372800D01*
X140089405Y-163372800D01*
X140888564Y-164171959D01*
X141049421Y-164125946D01*
X141262631Y-164339529D01*
X141681845Y-164513602D01*
X142135763Y-164513998D01*
X142555280Y-164340657D01*
X142876529Y-164019969D01*
X143050602Y-163600755D01*
X143050998Y-163146837D01*
X142877657Y-162727320D01*
X142556969Y-162406071D01*
X142137755Y-162231998D01*
X141683837Y-162231602D01*
X141264320Y-162404943D01*
X141049275Y-162619612D01*
X140888564Y-162573641D01*
X140089405Y-163372800D01*
X139730195Y-163372800D01*
X138931036Y-162573641D01*
X138689058Y-162642859D01*
X138658600Y-162728266D01*
X138658600Y-161058763D01*
X138768602Y-161058763D01*
X138941943Y-161478280D01*
X139262631Y-161799529D01*
X139681845Y-161973602D01*
X139953729Y-161973839D01*
X139562751Y-161993459D01*
X139179859Y-162152058D01*
X139110641Y-162394036D01*
X139909800Y-163193195D01*
X140708959Y-162394036D01*
X140639741Y-162152058D01*
X140137931Y-161973102D01*
X140555280Y-161800657D01*
X140876529Y-161479969D01*
X140909667Y-161400165D01*
X140941943Y-161478280D01*
X141262631Y-161799529D01*
X141681845Y-161973602D01*
X142135763Y-161973998D01*
X142555280Y-161800657D01*
X142876529Y-161479969D01*
X143050602Y-161060755D01*
X143050998Y-160606837D01*
X142877657Y-160187320D01*
X142556969Y-159866071D01*
X142137755Y-159691998D01*
X141683837Y-159691602D01*
X141264320Y-159864943D01*
X140943071Y-160185631D01*
X140909933Y-160265435D01*
X140877657Y-160187320D01*
X140556969Y-159866071D01*
X140137755Y-159691998D01*
X139683837Y-159691602D01*
X139264320Y-159864943D01*
X138943071Y-160185631D01*
X138768998Y-160604845D01*
X138768602Y-161058763D01*
X138658600Y-161058763D01*
X138658600Y-160032100D01*
X140742167Y-158444620D01*
X140774967Y-158407476D01*
X140792200Y-158343600D01*
X140792200Y-150052200D01*
X144456736Y-150052200D01*
X144456736Y-151852200D01*
X144486306Y-152000859D01*
X144570514Y-152126886D01*
X144696541Y-152211094D01*
X144845200Y-152240664D01*
X146645200Y-152240664D01*
X146793859Y-152211094D01*
X146919886Y-152126886D01*
X146983046Y-152032359D01*
X147384646Y-152032359D01*
X147471052Y-152288843D01*
X148044536Y-152498658D01*
X148654660Y-152473039D01*
X149099348Y-152288843D01*
X149185754Y-152032359D01*
X149134954Y-151981559D01*
X150534246Y-151981559D01*
X150620652Y-152238043D01*
X151194136Y-152447858D01*
X151804260Y-152422239D01*
X152248948Y-152238043D01*
X152335354Y-151981559D01*
X151434800Y-151081005D01*
X150534246Y-151981559D01*
X149134954Y-151981559D01*
X148285200Y-151131805D01*
X147384646Y-152032359D01*
X146983046Y-152032359D01*
X147004094Y-152000859D01*
X147033664Y-151852200D01*
X147033664Y-151795019D01*
X147205041Y-151852754D01*
X148105595Y-150952200D01*
X148464805Y-150952200D01*
X149365359Y-151852754D01*
X149621843Y-151766348D01*
X149831658Y-151192864D01*
X149809315Y-150660736D01*
X149888342Y-150660736D01*
X149913961Y-151270860D01*
X150098157Y-151715548D01*
X150354641Y-151801954D01*
X151255195Y-150901400D01*
X151614405Y-150901400D01*
X152514959Y-151801954D01*
X152686336Y-151744219D01*
X152686336Y-151801400D01*
X152715906Y-151950059D01*
X152800114Y-152076086D01*
X152926141Y-152160294D01*
X153074800Y-152189864D01*
X154874800Y-152189864D01*
X155023459Y-152160294D01*
X155149486Y-152076086D01*
X155233694Y-151950059D01*
X155263264Y-151801400D01*
X155263264Y-150001400D01*
X155233694Y-149852741D01*
X155149486Y-149726714D01*
X155023459Y-149642506D01*
X154874800Y-149612936D01*
X153074800Y-149612936D01*
X152926141Y-149642506D01*
X152800114Y-149726714D01*
X152715906Y-149852741D01*
X152686336Y-150001400D01*
X152686336Y-150058581D01*
X152514959Y-150000846D01*
X151614405Y-150901400D01*
X151255195Y-150901400D01*
X150354641Y-150000846D01*
X150098157Y-150087252D01*
X149888342Y-150660736D01*
X149809315Y-150660736D01*
X149806039Y-150582740D01*
X149621843Y-150138052D01*
X149365359Y-150051646D01*
X148464805Y-150952200D01*
X148105595Y-150952200D01*
X147205041Y-150051646D01*
X147033664Y-150109381D01*
X147033664Y-150052200D01*
X147004094Y-149903541D01*
X146983047Y-149872041D01*
X147384646Y-149872041D01*
X148285200Y-150772595D01*
X149185754Y-149872041D01*
X149168641Y-149821241D01*
X150534246Y-149821241D01*
X151434800Y-150721795D01*
X152335354Y-149821241D01*
X152248948Y-149564757D01*
X151675464Y-149354942D01*
X151065340Y-149380561D01*
X150620652Y-149564757D01*
X150534246Y-149821241D01*
X149168641Y-149821241D01*
X149099348Y-149615557D01*
X148525864Y-149405742D01*
X147915740Y-149431361D01*
X147471052Y-149615557D01*
X147384646Y-149872041D01*
X146983047Y-149872041D01*
X146919886Y-149777514D01*
X146793859Y-149693306D01*
X146645200Y-149663736D01*
X144845200Y-149663736D01*
X144696541Y-149693306D01*
X144570514Y-149777514D01*
X144486306Y-149903541D01*
X144456736Y-150052200D01*
X140792200Y-150052200D01*
X140792200Y-148209000D01*
X190525400Y-148209000D01*
X190525400Y-191960500D01*
X190525400Y-191960500D01*
G37*
X190525400Y-191960500D02*
X167563800Y-191960500D01*
X167515199Y-191970167D01*
X167510757Y-191973135D01*
X129032162Y-191935225D01*
X129047060Y-180232407D01*
X131094500Y-180232407D01*
X131357474Y-180868852D01*
X131843987Y-181356214D01*
X132479972Y-181620299D01*
X133168607Y-181620900D01*
X133805052Y-181357926D01*
X134292414Y-180871413D01*
X134556499Y-180235428D01*
X134556501Y-180232407D01*
X138594500Y-180232407D01*
X138857474Y-180868852D01*
X139343987Y-181356214D01*
X139979972Y-181620299D01*
X140668607Y-181620900D01*
X141305052Y-181357926D01*
X141792414Y-180871413D01*
X142056499Y-180235428D01*
X142056634Y-180080007D01*
X145851900Y-180080007D01*
X146114874Y-180716452D01*
X146601387Y-181203814D01*
X147237372Y-181467899D01*
X147926007Y-181468500D01*
X148562452Y-181205526D01*
X149049814Y-180719013D01*
X149313899Y-180083028D01*
X149314500Y-179394393D01*
X149051526Y-178757948D01*
X148565013Y-178270586D01*
X147929028Y-178006501D01*
X147240393Y-178005900D01*
X146603948Y-178268874D01*
X146116586Y-178755387D01*
X145852501Y-179391372D01*
X145851900Y-180080007D01*
X142056634Y-180080007D01*
X142057058Y-179595183D01*
X142394220Y-179258021D01*
X142394222Y-179258018D01*
X144207841Y-177444400D01*
X151353559Y-177444400D01*
X152816946Y-178907787D01*
X153352456Y-179443296D01*
X153351900Y-180080007D01*
X153614874Y-180716452D01*
X154101387Y-181203814D01*
X154737372Y-181467899D01*
X155426007Y-181468500D01*
X156062452Y-181205526D01*
X156549814Y-180719013D01*
X156813899Y-180083028D01*
X156814458Y-179442783D01*
X158050841Y-178206400D01*
X161791946Y-178206400D01*
X161640748Y-178268874D01*
X161153386Y-178755387D01*
X160889301Y-179391372D01*
X160888700Y-180080007D01*
X161151674Y-180716452D01*
X161638187Y-181203814D01*
X162274172Y-181467899D01*
X162962807Y-181468500D01*
X163599252Y-181205526D01*
X164086614Y-180719013D01*
X164350699Y-180083028D01*
X164351300Y-179394393D01*
X164088326Y-178757948D01*
X163601813Y-178270586D01*
X163447237Y-178206400D01*
X167152360Y-178206400D01*
X168051580Y-179105621D01*
X168051583Y-179105623D01*
X168389256Y-179443296D01*
X168388700Y-180080007D01*
X168651674Y-180716452D01*
X169138187Y-181203814D01*
X169774172Y-181467899D01*
X170462807Y-181468500D01*
X171099252Y-181205526D01*
X171586614Y-180719013D01*
X171850699Y-180083028D01*
X171851258Y-179442783D01*
X172779842Y-178514199D01*
X176685795Y-178514199D01*
X176444186Y-178755387D01*
X176180101Y-179391372D01*
X176179500Y-180080007D01*
X176442474Y-180716452D01*
X176928987Y-181203814D01*
X177564972Y-181467899D01*
X178253607Y-181468500D01*
X178890052Y-181205526D01*
X179377414Y-180719013D01*
X179641499Y-180083028D01*
X179642100Y-179394393D01*
X179379126Y-178757948D01*
X179135802Y-178514199D01*
X182750959Y-178514199D01*
X183342381Y-179105622D01*
X183342384Y-179105624D01*
X183680056Y-179443296D01*
X183679500Y-180080007D01*
X183942474Y-180716452D01*
X184428987Y-181203814D01*
X185064972Y-181467899D01*
X185753607Y-181468500D01*
X186390052Y-181205526D01*
X186877414Y-180719013D01*
X187141499Y-180083028D01*
X187142100Y-179394393D01*
X186879126Y-178757948D01*
X186392613Y-178270586D01*
X185756628Y-178006501D01*
X185116382Y-178005942D01*
X184779224Y-177668784D01*
X184779222Y-177668781D01*
X183890219Y-176779779D01*
X183560606Y-176559537D01*
X183496099Y-176546706D01*
X183171799Y-176482199D01*
X172359001Y-176482199D01*
X171970194Y-176559537D01*
X171640581Y-176779778D01*
X170413904Y-178006456D01*
X169825582Y-178005942D01*
X169488423Y-177668783D01*
X169488421Y-177668780D01*
X168291620Y-176471980D01*
X167962007Y-176251738D01*
X167897500Y-176238907D01*
X167573200Y-176174400D01*
X157630000Y-176174400D01*
X157305700Y-176238907D01*
X157241193Y-176251738D01*
X156911579Y-176471980D01*
X155377104Y-178006456D01*
X154788783Y-178005942D01*
X154149903Y-177367062D01*
X148932899Y-172150059D01*
X148932899Y-156322682D01*
X149999557Y-156322682D01*
X150124967Y-156626198D01*
X150356981Y-156858617D01*
X150660277Y-156984557D01*
X150988682Y-156984843D01*
X151292198Y-156859433D01*
X151497489Y-156654500D01*
X156871433Y-156654500D01*
X156717083Y-156808581D01*
X156591143Y-157111877D01*
X156590857Y-157440282D01*
X156716267Y-157743798D01*
X156921200Y-157949089D01*
X156921200Y-165113510D01*
X156894883Y-165139781D01*
X156768943Y-165443077D01*
X156768657Y-165771482D01*
X156894067Y-166074998D01*
X157126081Y-166307417D01*
X157429377Y-166433357D01*
X157757782Y-166433643D01*
X158061298Y-166308233D01*
X158293717Y-166076219D01*
X158419657Y-165772923D01*
X158419943Y-165444518D01*
X158294533Y-165141002D01*
X158062519Y-164908583D01*
X157911800Y-164845999D01*
X157911800Y-157948780D01*
X158115917Y-157745019D01*
X158241857Y-157441723D01*
X158242143Y-157113318D01*
X158116733Y-156809802D01*
X157961702Y-156654500D01*
X159194500Y-156654500D01*
X159194500Y-160629600D01*
X159232202Y-160819144D01*
X159339570Y-160979830D01*
X160286808Y-161927068D01*
X160286557Y-162215482D01*
X160411967Y-162518998D01*
X160643981Y-162751417D01*
X160947277Y-162877357D01*
X161275682Y-162877643D01*
X161579198Y-162752233D01*
X161811617Y-162520219D01*
X161937557Y-162216923D01*
X161937734Y-162013890D01*
X162075550Y-162014010D01*
X170718770Y-170657230D01*
X170879457Y-170764598D01*
X171069000Y-170802300D01*
X173901922Y-170802300D01*
X173847906Y-170883141D01*
X173818336Y-171031800D01*
X173818336Y-172731800D01*
X173847906Y-172880459D01*
X173932114Y-173006486D01*
X174058141Y-173090694D01*
X174206800Y-173120264D01*
X175906800Y-173120264D01*
X176055459Y-173090694D01*
X176181486Y-173006486D01*
X176265694Y-172880459D01*
X176295264Y-172731800D01*
X176295264Y-171031800D01*
X176265694Y-170883141D01*
X176211678Y-170802300D01*
X177003126Y-170802300D01*
X176726352Y-170987235D01*
X176459504Y-171386600D01*
X176365800Y-171857683D01*
X176365800Y-171905917D01*
X176459504Y-172377000D01*
X176726352Y-172776365D01*
X177125717Y-173043213D01*
X177596800Y-173136917D01*
X178067883Y-173043213D01*
X178467248Y-172776365D01*
X178734096Y-172377000D01*
X178827800Y-171905917D01*
X178827800Y-171857683D01*
X178734096Y-171386600D01*
X178467248Y-170987235D01*
X178190474Y-170802300D01*
X179543126Y-170802300D01*
X179266352Y-170987235D01*
X178999504Y-171386600D01*
X178905800Y-171857683D01*
X178905800Y-171905917D01*
X178999504Y-172377000D01*
X179266352Y-172776365D01*
X179665717Y-173043213D01*
X180136800Y-173136917D01*
X180607883Y-173043213D01*
X181007248Y-172776365D01*
X181274096Y-172377000D01*
X181367800Y-171905917D01*
X181367800Y-171857683D01*
X181274096Y-171386600D01*
X181007248Y-170987235D01*
X180730474Y-170802300D01*
X180896840Y-170802300D01*
X181529821Y-171435281D01*
X181445800Y-171857683D01*
X181445800Y-171905917D01*
X181539504Y-172377000D01*
X181806352Y-172776365D01*
X182205717Y-173043213D01*
X182676800Y-173136917D01*
X183147883Y-173043213D01*
X183547248Y-172776365D01*
X183814096Y-172377000D01*
X183821883Y-172337853D01*
X184021617Y-172763158D01*
X184449876Y-173153445D01*
X184859910Y-173323276D01*
X185089800Y-173201955D01*
X185089800Y-172008800D01*
X185069800Y-172008800D01*
X185069800Y-171754800D01*
X185089800Y-171754800D01*
X185089800Y-170561645D01*
X185343800Y-170561645D01*
X185343800Y-171754800D01*
X185363800Y-171754800D01*
X185363800Y-172008800D01*
X185343800Y-172008800D01*
X185343800Y-173201955D01*
X185573690Y-173323276D01*
X185983724Y-173153445D01*
X186411983Y-172763158D01*
X186611717Y-172337853D01*
X186619504Y-172377000D01*
X186886352Y-172776365D01*
X187285717Y-173043213D01*
X187756800Y-173136917D01*
X188227883Y-173043213D01*
X188627248Y-172776365D01*
X188894096Y-172377000D01*
X188987800Y-171905917D01*
X188987800Y-171857683D01*
X188894096Y-171386600D01*
X188627248Y-170987235D01*
X188227883Y-170720387D01*
X187756800Y-170626683D01*
X187285717Y-170720387D01*
X186886352Y-170987235D01*
X186619504Y-171386600D01*
X186611717Y-171425747D01*
X186411983Y-171000442D01*
X185983724Y-170610155D01*
X185573690Y-170440324D01*
X185343800Y-170561645D01*
X185089800Y-170561645D01*
X184859910Y-170440324D01*
X184449876Y-170610155D01*
X184021617Y-171000442D01*
X183821883Y-171425747D01*
X183814096Y-171386600D01*
X183547248Y-170987235D01*
X183147883Y-170720387D01*
X182676800Y-170626683D01*
X182214166Y-170718706D01*
X181452230Y-169956770D01*
X181291544Y-169849402D01*
X181102000Y-169811700D01*
X171274160Y-169811700D01*
X162775792Y-161313332D01*
X162776043Y-161024918D01*
X162650633Y-160721402D01*
X162418619Y-160488983D01*
X162115323Y-160363043D01*
X161786918Y-160362757D01*
X161483402Y-160488167D01*
X161250983Y-160720181D01*
X161125043Y-161023477D01*
X161124866Y-161226510D01*
X160987050Y-161226390D01*
X160185100Y-160424440D01*
X160185100Y-156159200D01*
X160147398Y-155969657D01*
X160040030Y-155808970D01*
X159879343Y-155701602D01*
X159689800Y-155663900D01*
X151497180Y-155663900D01*
X151293419Y-155459783D01*
X150990123Y-155333843D01*
X150661718Y-155333557D01*
X150358202Y-155458967D01*
X150125783Y-155690981D01*
X149999843Y-155994277D01*
X149999557Y-156322682D01*
X148932899Y-156322682D01*
X148932899Y-156104021D01*
X150162121Y-154874800D01*
X162763200Y-154874800D01*
X163087500Y-154810293D01*
X163152007Y-154797462D01*
X163481620Y-154577220D01*
X163854816Y-154204024D01*
X163942567Y-154416398D01*
X164147500Y-154621689D01*
X164147500Y-155752800D01*
X164185202Y-155942344D01*
X164292570Y-156103030D01*
X167023600Y-158834060D01*
X167008327Y-158834047D01*
X166684405Y-158967889D01*
X166436360Y-159215502D01*
X166301953Y-159539189D01*
X166301647Y-159889673D01*
X166435489Y-160213595D01*
X166683102Y-160461640D01*
X166691295Y-160465042D01*
X166684405Y-160467889D01*
X166436360Y-160715502D01*
X166301953Y-161039189D01*
X166301647Y-161389673D01*
X166435489Y-161713595D01*
X166683102Y-161961640D01*
X167006789Y-162096047D01*
X167357273Y-162096353D01*
X167681195Y-161962511D01*
X167929240Y-161714898D01*
X168063647Y-161391211D01*
X168063953Y-161040727D01*
X167930111Y-160716805D01*
X167682498Y-160468760D01*
X167674305Y-160465358D01*
X167681195Y-160462511D01*
X167929240Y-160214898D01*
X168063647Y-159891211D01*
X168063662Y-159874122D01*
X176365008Y-168175468D01*
X176364757Y-168463882D01*
X176490167Y-168767398D01*
X176722181Y-168999817D01*
X177025477Y-169125757D01*
X177353882Y-169126043D01*
X177657398Y-169000633D01*
X177889817Y-168768619D01*
X178015757Y-168465323D01*
X178016043Y-168136918D01*
X177890633Y-167833402D01*
X177658619Y-167600983D01*
X177355323Y-167475043D01*
X177065250Y-167474790D01*
X173232843Y-163642383D01*
X184847604Y-163642383D01*
X185019425Y-164058223D01*
X185337303Y-164376656D01*
X185752843Y-164549204D01*
X186202783Y-164549596D01*
X186618623Y-164377775D01*
X186937056Y-164059897D01*
X187109604Y-163644357D01*
X187109996Y-163194417D01*
X186938175Y-162778577D01*
X186620297Y-162460144D01*
X186204757Y-162287596D01*
X185754817Y-162287204D01*
X185338977Y-162459025D01*
X185020544Y-162776903D01*
X184847996Y-163192443D01*
X184847604Y-163642383D01*
X173232843Y-163642383D01*
X169732843Y-160142383D01*
X184847604Y-160142383D01*
X185019425Y-160558223D01*
X185337303Y-160876656D01*
X185752843Y-161049204D01*
X186202783Y-161049596D01*
X186618623Y-160877775D01*
X186937056Y-160559897D01*
X187109604Y-160144357D01*
X187109996Y-159694417D01*
X186938175Y-159278577D01*
X186620297Y-158960144D01*
X186204757Y-158787596D01*
X185754817Y-158787204D01*
X185338977Y-158959025D01*
X185020544Y-159276903D01*
X184847996Y-159692443D01*
X184847604Y-160142383D01*
X169732843Y-160142383D01*
X165138100Y-155547640D01*
X165138100Y-155034383D01*
X184720604Y-155034383D01*
X184892425Y-155450223D01*
X185210303Y-155768656D01*
X185625843Y-155941204D01*
X186075783Y-155941596D01*
X186491623Y-155769775D01*
X186810056Y-155451897D01*
X186982604Y-155036357D01*
X186982996Y-154586417D01*
X186811175Y-154170577D01*
X186493297Y-153852144D01*
X186077757Y-153679596D01*
X185627817Y-153679204D01*
X185211977Y-153851025D01*
X184893544Y-154168903D01*
X184720996Y-154584443D01*
X184720604Y-155034383D01*
X165138100Y-155034383D01*
X165138100Y-154621380D01*
X165342217Y-154417619D01*
X165468157Y-154114323D01*
X165468443Y-153785918D01*
X165343033Y-153482402D01*
X165111019Y-153249983D01*
X164846422Y-153140112D01*
X164921062Y-153028407D01*
X164933893Y-152963900D01*
X164998400Y-152639600D01*
X164998400Y-151734990D01*
X165031059Y-151728494D01*
X165157086Y-151644286D01*
X165241294Y-151518259D01*
X165270864Y-151369600D01*
X165270864Y-151329924D01*
X165738670Y-151797730D01*
X165899357Y-151905098D01*
X166088900Y-151942800D01*
X169431820Y-151942800D01*
X169635581Y-152146917D01*
X169938877Y-152272857D01*
X170267282Y-152273143D01*
X170570798Y-152147733D01*
X170803217Y-151915719D01*
X170929157Y-151612423D01*
X170929224Y-151534383D01*
X184720604Y-151534383D01*
X184892425Y-151950223D01*
X185210303Y-152268656D01*
X185625843Y-152441204D01*
X186075783Y-152441596D01*
X186491623Y-152269775D01*
X186810056Y-151951897D01*
X186982604Y-151536357D01*
X186982996Y-151086417D01*
X186811175Y-150670577D01*
X186493297Y-150352144D01*
X186077757Y-150179596D01*
X185627817Y-150179204D01*
X185211977Y-150351025D01*
X184893544Y-150668903D01*
X184720996Y-151084443D01*
X184720604Y-151534383D01*
X170929224Y-151534383D01*
X170929443Y-151284018D01*
X170804033Y-150980502D01*
X170572019Y-150748083D01*
X170268723Y-150622143D01*
X169940318Y-150621857D01*
X169636802Y-150747267D01*
X169431511Y-150952200D01*
X166294060Y-150952200D01*
X165461230Y-150119370D01*
X165300544Y-150012002D01*
X165270864Y-150006098D01*
X165270864Y-149569600D01*
X165241294Y-149420941D01*
X165157086Y-149294914D01*
X165031059Y-149210706D01*
X164882400Y-149181136D01*
X163082400Y-149181136D01*
X162933741Y-149210706D01*
X162807714Y-149294914D01*
X162723506Y-149420941D01*
X162693936Y-149569600D01*
X162693936Y-150195308D01*
X162650986Y-149979383D01*
X162373300Y-149563796D01*
X161957713Y-149286110D01*
X161467496Y-149188600D01*
X161417304Y-149188600D01*
X160927087Y-149286110D01*
X160511500Y-149563796D01*
X160233814Y-149979383D01*
X160172400Y-150288133D01*
X160110986Y-149979383D01*
X159833300Y-149563796D01*
X159417713Y-149286110D01*
X158927496Y-149188600D01*
X158877304Y-149188600D01*
X158387087Y-149286110D01*
X157971500Y-149563796D01*
X157693814Y-149979383D01*
X157596304Y-150469600D01*
X157693814Y-150959817D01*
X157971500Y-151375404D01*
X158387087Y-151653090D01*
X158877304Y-151750600D01*
X158927496Y-151750600D01*
X159417713Y-151653090D01*
X159833300Y-151375404D01*
X160110986Y-150959817D01*
X160172400Y-150651067D01*
X160233814Y-150959817D01*
X160511500Y-151375404D01*
X160927087Y-151653090D01*
X161417304Y-151750600D01*
X161467496Y-151750600D01*
X161957713Y-151653090D01*
X162373300Y-151375404D01*
X162650986Y-150959817D01*
X162693936Y-150743892D01*
X162693936Y-151369600D01*
X162723506Y-151518259D01*
X162807714Y-151644286D01*
X162933741Y-151728494D01*
X162966400Y-151734990D01*
X162966400Y-152218759D01*
X162342360Y-152842800D01*
X149741280Y-152842800D01*
X149352474Y-152920138D01*
X149352472Y-152920139D01*
X149352473Y-152920139D01*
X149022859Y-153140380D01*
X147198479Y-154964761D01*
X146978237Y-155294374D01*
X146970443Y-155333557D01*
X146900899Y-155683181D01*
X146900899Y-172570899D01*
X146939142Y-172763158D01*
X146978237Y-172959706D01*
X147198479Y-173289319D01*
X149321560Y-175412400D01*
X143787000Y-175412400D01*
X143462700Y-175476907D01*
X143398193Y-175489738D01*
X143068579Y-175709980D01*
X140957382Y-177821178D01*
X140957379Y-177821180D01*
X140619704Y-178158856D01*
X139982993Y-178158300D01*
X139346548Y-178421274D01*
X138859186Y-178907787D01*
X138595101Y-179543772D01*
X138594500Y-180232407D01*
X134556501Y-180232407D01*
X134557100Y-179546793D01*
X134294126Y-178910348D01*
X133807613Y-178422986D01*
X133171628Y-178158901D01*
X132482993Y-178158300D01*
X131846548Y-178421274D01*
X131359186Y-178907787D01*
X131095101Y-179543772D01*
X131094500Y-180232407D01*
X129047060Y-180232407D01*
X129057239Y-172237400D01*
X140868400Y-172237400D01*
X140917001Y-172227733D01*
X140958203Y-172200203D01*
X140985733Y-172159001D01*
X140995400Y-172110400D01*
X140995400Y-165608000D01*
X140985733Y-165559399D01*
X140958203Y-165518197D01*
X140925196Y-165494408D01*
X138658600Y-164361110D01*
X138658600Y-164351564D01*
X139110641Y-164351564D01*
X139179859Y-164593542D01*
X139702580Y-164779955D01*
X140256849Y-164752141D01*
X140639741Y-164593542D01*
X140708959Y-164351564D01*
X139909800Y-163552405D01*
X139110641Y-164351564D01*
X138658600Y-164351564D01*
X138658600Y-164029209D01*
X138689058Y-164102741D01*
X138931036Y-164171959D01*
X139730195Y-163372800D01*
X140089405Y-163372800D01*
X140888564Y-164171959D01*
X141049421Y-164125946D01*
X141262631Y-164339529D01*
X141681845Y-164513602D01*
X142135763Y-164513998D01*
X142555280Y-164340657D01*
X142876529Y-164019969D01*
X143050602Y-163600755D01*
X143050998Y-163146837D01*
X142877657Y-162727320D01*
X142556969Y-162406071D01*
X142137755Y-162231998D01*
X141683837Y-162231602D01*
X141264320Y-162404943D01*
X141049275Y-162619612D01*
X140888564Y-162573641D01*
X140089405Y-163372800D01*
X139730195Y-163372800D01*
X138931036Y-162573641D01*
X138689058Y-162642859D01*
X138658600Y-162728266D01*
X138658600Y-161058763D01*
X138768602Y-161058763D01*
X138941943Y-161478280D01*
X139262631Y-161799529D01*
X139681845Y-161973602D01*
X139953729Y-161973839D01*
X139562751Y-161993459D01*
X139179859Y-162152058D01*
X139110641Y-162394036D01*
X139909800Y-163193195D01*
X140708959Y-162394036D01*
X140639741Y-162152058D01*
X140137931Y-161973102D01*
X140555280Y-161800657D01*
X140876529Y-161479969D01*
X140909667Y-161400165D01*
X140941943Y-161478280D01*
X141262631Y-161799529D01*
X141681845Y-161973602D01*
X142135763Y-161973998D01*
X142555280Y-161800657D01*
X142876529Y-161479969D01*
X143050602Y-161060755D01*
X143050998Y-160606837D01*
X142877657Y-160187320D01*
X142556969Y-159866071D01*
X142137755Y-159691998D01*
X141683837Y-159691602D01*
X141264320Y-159864943D01*
X140943071Y-160185631D01*
X140909933Y-160265435D01*
X140877657Y-160187320D01*
X140556969Y-159866071D01*
X140137755Y-159691998D01*
X139683837Y-159691602D01*
X139264320Y-159864943D01*
X138943071Y-160185631D01*
X138768998Y-160604845D01*
X138768602Y-161058763D01*
X138658600Y-161058763D01*
X138658600Y-160032100D01*
X140742167Y-158444620D01*
X140774967Y-158407476D01*
X140792200Y-158343600D01*
X140792200Y-150052200D01*
X144456736Y-150052200D01*
X144456736Y-151852200D01*
X144486306Y-152000859D01*
X144570514Y-152126886D01*
X144696541Y-152211094D01*
X144845200Y-152240664D01*
X146645200Y-152240664D01*
X146793859Y-152211094D01*
X146919886Y-152126886D01*
X146983046Y-152032359D01*
X147384646Y-152032359D01*
X147471052Y-152288843D01*
X148044536Y-152498658D01*
X148654660Y-152473039D01*
X149099348Y-152288843D01*
X149185754Y-152032359D01*
X149134954Y-151981559D01*
X150534246Y-151981559D01*
X150620652Y-152238043D01*
X151194136Y-152447858D01*
X151804260Y-152422239D01*
X152248948Y-152238043D01*
X152335354Y-151981559D01*
X151434800Y-151081005D01*
X150534246Y-151981559D01*
X149134954Y-151981559D01*
X148285200Y-151131805D01*
X147384646Y-152032359D01*
X146983046Y-152032359D01*
X147004094Y-152000859D01*
X147033664Y-151852200D01*
X147033664Y-151795019D01*
X147205041Y-151852754D01*
X148105595Y-150952200D01*
X148464805Y-150952200D01*
X149365359Y-151852754D01*
X149621843Y-151766348D01*
X149831658Y-151192864D01*
X149809315Y-150660736D01*
X149888342Y-150660736D01*
X149913961Y-151270860D01*
X150098157Y-151715548D01*
X150354641Y-151801954D01*
X151255195Y-150901400D01*
X151614405Y-150901400D01*
X152514959Y-151801954D01*
X152686336Y-151744219D01*
X152686336Y-151801400D01*
X152715906Y-151950059D01*
X152800114Y-152076086D01*
X152926141Y-152160294D01*
X153074800Y-152189864D01*
X154874800Y-152189864D01*
X155023459Y-152160294D01*
X155149486Y-152076086D01*
X155233694Y-151950059D01*
X155263264Y-151801400D01*
X155263264Y-150001400D01*
X155233694Y-149852741D01*
X155149486Y-149726714D01*
X155023459Y-149642506D01*
X154874800Y-149612936D01*
X153074800Y-149612936D01*
X152926141Y-149642506D01*
X152800114Y-149726714D01*
X152715906Y-149852741D01*
X152686336Y-150001400D01*
X152686336Y-150058581D01*
X152514959Y-150000846D01*
X151614405Y-150901400D01*
X151255195Y-150901400D01*
X150354641Y-150000846D01*
X150098157Y-150087252D01*
X149888342Y-150660736D01*
X149809315Y-150660736D01*
X149806039Y-150582740D01*
X149621843Y-150138052D01*
X149365359Y-150051646D01*
X148464805Y-150952200D01*
X148105595Y-150952200D01*
X147205041Y-150051646D01*
X147033664Y-150109381D01*
X147033664Y-150052200D01*
X147004094Y-149903541D01*
X146983047Y-149872041D01*
X147384646Y-149872041D01*
X148285200Y-150772595D01*
X149185754Y-149872041D01*
X149168641Y-149821241D01*
X150534246Y-149821241D01*
X151434800Y-150721795D01*
X152335354Y-149821241D01*
X152248948Y-149564757D01*
X151675464Y-149354942D01*
X151065340Y-149380561D01*
X150620652Y-149564757D01*
X150534246Y-149821241D01*
X149168641Y-149821241D01*
X149099348Y-149615557D01*
X148525864Y-149405742D01*
X147915740Y-149431361D01*
X147471052Y-149615557D01*
X147384646Y-149872041D01*
X146983047Y-149872041D01*
X146919886Y-149777514D01*
X146793859Y-149693306D01*
X146645200Y-149663736D01*
X144845200Y-149663736D01*
X144696541Y-149693306D01*
X144570514Y-149777514D01*
X144486306Y-149903541D01*
X144456736Y-150052200D01*
X140792200Y-150052200D01*
X140792200Y-148209000D01*
X190525400Y-148209000D01*
X190525400Y-191960500D01*
G36*
X139115800Y-155494405D02*
X138918582Y-155018278D01*
X138615393Y-154876812D01*
X137389405Y-156102800D01*
X138615393Y-157328788D01*
X138918582Y-157187322D01*
X139115800Y-156677605D01*
X139115800Y-157671162D01*
X137235352Y-159106241D01*
X137202582Y-159143411D01*
X137185400Y-159207200D01*
X137185400Y-165201600D01*
X137195067Y-165250201D01*
X137222597Y-165291403D01*
X137247059Y-165310502D01*
X138963400Y-166340307D01*
X138963400Y-167126478D01*
X138918582Y-167018278D01*
X138615393Y-166876812D01*
X137389405Y-168102800D01*
X138615393Y-169328788D01*
X138918582Y-169187322D01*
X138963400Y-169071488D01*
X138963400Y-170205400D01*
X129514310Y-170205400D01*
X129512716Y-169508393D01*
X135983812Y-169508393D01*
X136125278Y-169811582D01*
X136861755Y-170096537D01*
X137651218Y-170077964D01*
X138294322Y-169811582D01*
X138435788Y-169508393D01*
X137209800Y-168282405D01*
X135983812Y-169508393D01*
X129512716Y-169508393D01*
X129508703Y-167754755D01*
X135216063Y-167754755D01*
X135234636Y-168544218D01*
X135501018Y-169187322D01*
X135804207Y-169328788D01*
X137030195Y-168102800D01*
X135804207Y-166876812D01*
X135501018Y-167018278D01*
X135216063Y-167754755D01*
X129508703Y-167754755D01*
X129506283Y-166697207D01*
X135983812Y-166697207D01*
X137209800Y-167923195D01*
X138435788Y-166697207D01*
X138294322Y-166394018D01*
X137557845Y-166109063D01*
X136768382Y-166127636D01*
X136125278Y-166394018D01*
X135983812Y-166697207D01*
X129506283Y-166697207D01*
X129485256Y-157508393D01*
X135983812Y-157508393D01*
X136125278Y-157811582D01*
X136861755Y-158096537D01*
X137651218Y-158077964D01*
X138294322Y-157811582D01*
X138435788Y-157508393D01*
X137209800Y-156282405D01*
X135983812Y-157508393D01*
X129485256Y-157508393D01*
X129481243Y-155754755D01*
X135216063Y-155754755D01*
X135234636Y-156544218D01*
X135501018Y-157187322D01*
X135804207Y-157328788D01*
X137030195Y-156102800D01*
X135804207Y-154876812D01*
X135501018Y-155018278D01*
X135216063Y-155754755D01*
X129481243Y-155754755D01*
X129478823Y-154697207D01*
X135983812Y-154697207D01*
X137209800Y-155923195D01*
X138435788Y-154697207D01*
X138294322Y-154394018D01*
X137557845Y-154109063D01*
X136768382Y-154127636D01*
X136125278Y-154394018D01*
X135983812Y-154697207D01*
X129478823Y-154697207D01*
X129464091Y-148259800D01*
X139115800Y-148259800D01*
X139115800Y-155494405D01*
X139115800Y-155494405D01*
G37*
X139115800Y-155494405D02*
X138918582Y-155018278D01*
X138615393Y-154876812D01*
X137389405Y-156102800D01*
X138615393Y-157328788D01*
X138918582Y-157187322D01*
X139115800Y-156677605D01*
X139115800Y-157671162D01*
X137235352Y-159106241D01*
X137202582Y-159143411D01*
X137185400Y-159207200D01*
X137185400Y-165201600D01*
X137195067Y-165250201D01*
X137222597Y-165291403D01*
X137247059Y-165310502D01*
X138963400Y-166340307D01*
X138963400Y-167126478D01*
X138918582Y-167018278D01*
X138615393Y-166876812D01*
X137389405Y-168102800D01*
X138615393Y-169328788D01*
X138918582Y-169187322D01*
X138963400Y-169071488D01*
X138963400Y-170205400D01*
X129514310Y-170205400D01*
X129512716Y-169508393D01*
X135983812Y-169508393D01*
X136125278Y-169811582D01*
X136861755Y-170096537D01*
X137651218Y-170077964D01*
X138294322Y-169811582D01*
X138435788Y-169508393D01*
X137209800Y-168282405D01*
X135983812Y-169508393D01*
X129512716Y-169508393D01*
X129508703Y-167754755D01*
X135216063Y-167754755D01*
X135234636Y-168544218D01*
X135501018Y-169187322D01*
X135804207Y-169328788D01*
X137030195Y-168102800D01*
X135804207Y-166876812D01*
X135501018Y-167018278D01*
X135216063Y-167754755D01*
X129508703Y-167754755D01*
X129506283Y-166697207D01*
X135983812Y-166697207D01*
X137209800Y-167923195D01*
X138435788Y-166697207D01*
X138294322Y-166394018D01*
X137557845Y-166109063D01*
X136768382Y-166127636D01*
X136125278Y-166394018D01*
X135983812Y-166697207D01*
X129506283Y-166697207D01*
X129485256Y-157508393D01*
X135983812Y-157508393D01*
X136125278Y-157811582D01*
X136861755Y-158096537D01*
X137651218Y-158077964D01*
X138294322Y-157811582D01*
X138435788Y-157508393D01*
X137209800Y-156282405D01*
X135983812Y-157508393D01*
X129485256Y-157508393D01*
X129481243Y-155754755D01*
X135216063Y-155754755D01*
X135234636Y-156544218D01*
X135501018Y-157187322D01*
X135804207Y-157328788D01*
X137030195Y-156102800D01*
X135804207Y-154876812D01*
X135501018Y-155018278D01*
X135216063Y-155754755D01*
X129481243Y-155754755D01*
X129478823Y-154697207D01*
X135983812Y-154697207D01*
X137209800Y-155923195D01*
X138435788Y-154697207D01*
X138294322Y-154394018D01*
X137557845Y-154109063D01*
X136768382Y-154127636D01*
X136125278Y-154394018D01*
X135983812Y-154697207D01*
X129478823Y-154697207D01*
X129464091Y-148259800D01*
X139115800Y-148259800D01*
X139115800Y-155494405D01*
M02*
