M48
;DRILL file {KiCad (2017-01-27 revision d0c46a8)-makepkg} date 03/06/17 20:45:16
;FORMAT={-:-/ absolute / inch / decimal}
FMAT,2
INCH,TZ
T1C0.020
T2C0.025
T3C0.032
T4C0.035
T5C0.039
T6C0.043
T7C0.052
T8C0.057
T9C0.091
%
G90
G05
M72
T1
X6.582Y-6.288
X6.582Y-6.3471
T2
X5.6985Y-6.67
X5.8235Y-6.388
X5.876Y-6.437
X5.938Y-6.148
X5.9575Y-6.7225
X6.115Y-6.3965
X6.196Y-6.67
X6.1975Y-6.192
X6.2045Y-6.52
X6.3159Y-6.1342
X6.343Y-6.38
X6.376Y-6.346
X6.482Y-6.061
X6.5002Y-6.198
X6.697Y-5.9625
X6.704Y-6.1765
X6.7231Y-5.919
X6.739Y-6.338
X6.976Y-6.626
X7.02Y-5.883
X7.0425Y-6.18
X7.0855Y-6.4405
T3
X5.5083Y-6.332
X5.5083Y-6.432
X5.587Y-6.332
X5.587Y-6.432
T4
X5.738Y-5.943
X5.838Y-5.943
X5.962Y-5.941
X6.062Y-5.941
T5
X6.256Y-5.924
X6.356Y-5.924
X6.456Y-5.924
X6.892Y-6.767
X6.992Y-6.767
X7.092Y-6.767
X7.192Y-6.767
X7.292Y-6.767
X7.392Y-6.767
T6
X7.317Y-5.9571
X7.317Y-6.0949
X7.322Y-6.296
X7.322Y-6.4338
T7
X5.2294Y-7.0823
X5.2294Y-7.7279
X5.5246Y-7.0823
X5.5246Y-7.8657
X5.8104Y-7.0763
X5.8104Y-7.7219
X6.1056Y-7.0763
X6.1056Y-7.8597
X6.4024Y-7.0763
X6.4024Y-7.7219
X6.6976Y-7.0763
X6.6976Y-7.8597
X7.0044Y-7.0763
X7.0044Y-7.7219
X7.2996Y-7.0763
X7.2996Y-7.8597
T8
X5.6654Y-8.19
X5.8623Y-8.19
X6.0591Y-8.19
X6.256Y-8.19
X6.4529Y-8.19
X6.6497Y-8.19
X6.8466Y-8.19
X7.0434Y-8.19
T9
X5.402Y-6.1458
X5.402Y-6.6182
T0
M30
