G04 #@! TF.GenerationSoftware,KiCad,Pcbnew,(2017-01-27 revision d0c46a8)-makepkg*
G04 #@! TF.CreationDate,2017-03-06T20:45:13-05:00*
G04 #@! TF.ProjectId,reflowoven,7265666C6F776F76656E2E6B69636164,rev?*
G04 #@! TF.FileFunction,Soldermask,Bot*
G04 #@! TF.FilePolarity,Negative*
%FSLAX46Y46*%
G04 Gerber Fmt 4.6, Leading zero omitted, Abs format (unit mm)*
G04 Created by KiCad (PCBNEW (2017-01-27 revision d0c46a8)-makepkg) date 03/06/17 20:45:13*
%MOMM*%
%LPD*%
G01*
G04 APERTURE LIST*
%ADD10C,0.150000*%
%ADD11O,1.800000X1.800000*%
%ADD12R,1.800000X1.800000*%
%ADD13C,2.700000*%
%ADD14O,1.700000X1.700000*%
%ADD15R,1.700000X1.700000*%
%ADD16C,1.500000*%
%ADD17C,2.900000*%
%ADD18C,1.800000*%
%ADD19C,1.520000*%
%ADD20C,1.000000*%
G04 APERTURE END LIST*
D10*
D11*
X158902400Y-150469600D03*
X161442400Y-150469600D03*
D12*
X163982400Y-150469600D03*
D13*
X155083200Y-199637200D03*
X147583200Y-196137200D03*
X147583200Y-179737200D03*
X155083200Y-179737200D03*
X140325800Y-179889600D03*
X132825800Y-179889600D03*
X132825800Y-196289600D03*
X140325800Y-199789600D03*
D14*
X187756800Y-171881800D03*
X185216800Y-171881800D03*
X182676800Y-171881800D03*
X180136800Y-171881800D03*
X177596800Y-171881800D03*
D15*
X175056800Y-171881800D03*
D13*
X185410800Y-179737200D03*
X177910800Y-179737200D03*
X177910800Y-196137200D03*
X185410800Y-199637200D03*
D16*
X185978800Y-163418400D03*
X185978800Y-159918400D03*
X185851800Y-151310400D03*
X185851800Y-154810400D03*
D17*
X178902400Y-208026000D03*
X173902400Y-208026000D03*
X168902400Y-208026000D03*
X163902400Y-208026000D03*
X158902400Y-208026000D03*
X153902400Y-208026000D03*
X148902400Y-208026000D03*
X143902400Y-208026000D03*
D13*
X170120000Y-179737200D03*
X162620000Y-179737200D03*
X162620000Y-196137200D03*
X170120000Y-199637200D03*
D18*
X151434800Y-150901400D03*
D12*
X153974800Y-150901400D03*
D13*
X137209800Y-168102800D03*
X137209800Y-156102800D03*
D19*
X139909800Y-160832800D03*
X139909800Y-163372800D03*
X141909800Y-163372800D03*
X141909800Y-160832800D03*
D18*
X148285200Y-150952200D03*
D12*
X145745200Y-150952200D03*
D20*
X167182800Y-159715200D03*
X167182800Y-161215200D03*
M02*
