G04 #@! TF.GenerationSoftware,KiCad,Pcbnew,(2017-01-27 revision d0c46a8)-makepkg*
G04 #@! TF.CreationDate,2017-03-06T20:45:13-05:00*
G04 #@! TF.ProjectId,reflowoven,7265666C6F776F76656E2E6B69636164,rev?*
G04 #@! TF.FileFunction,Copper,L1,Top,Signal*
G04 #@! TF.FilePolarity,Positive*
%FSLAX46Y46*%
G04 Gerber Fmt 4.6, Leading zero omitted, Abs format (unit mm)*
G04 Created by KiCad (PCBNEW (2017-01-27 revision d0c46a8)-makepkg) date 03/06/17 20:45:13*
%MOMM*%
%LPD*%
G01*
G04 APERTURE LIST*
%ADD10C,0.150000*%
%ADD11R,1.450000X0.450000*%
%ADD12R,0.600000X1.500000*%
%ADD13R,1.750000X0.450000*%
%ADD14R,0.500000X0.900000*%
%ADD15O,1.800000X1.800000*%
%ADD16R,1.800000X1.800000*%
%ADD17C,2.700000*%
%ADD18O,1.700000X1.700000*%
%ADD19R,1.700000X1.700000*%
%ADD20R,0.750000X0.800000*%
%ADD21C,1.500000*%
%ADD22C,2.900000*%
%ADD23R,0.800000X0.750000*%
%ADD24R,1.000000X1.250000*%
%ADD25C,1.800000*%
%ADD26R,0.900000X1.700000*%
%ADD27C,1.520000*%
%ADD28C,1.000000*%
%ADD29C,0.889000*%
%ADD30C,0.228600*%
%ADD31C,0.254000*%
G04 APERTURE END LIST*
D10*
D11*
X164499200Y-158412200D03*
X164499200Y-159062200D03*
X164499200Y-159712200D03*
X164499200Y-160362200D03*
X164499200Y-161012200D03*
X164499200Y-161662200D03*
X164499200Y-162312200D03*
X164499200Y-162962200D03*
X164499200Y-163612200D03*
X164499200Y-164262200D03*
X158599200Y-164262200D03*
X158599200Y-163612200D03*
X158599200Y-162962200D03*
X158599200Y-162312200D03*
X158599200Y-161662200D03*
X158599200Y-161012200D03*
X158599200Y-160362200D03*
X158599200Y-159712200D03*
X158599200Y-159062200D03*
X158599200Y-158412200D03*
D12*
X166370000Y-173040000D03*
X165100000Y-173040000D03*
X163830000Y-173040000D03*
X162560000Y-173040000D03*
X161290000Y-173040000D03*
X160020000Y-173040000D03*
X158750000Y-173040000D03*
X157480000Y-173040000D03*
X157480000Y-167640000D03*
X158750000Y-167640000D03*
X160020000Y-167640000D03*
X161290000Y-167640000D03*
X162560000Y-167640000D03*
X163830000Y-167640000D03*
X165100000Y-167640000D03*
X166370000Y-167640000D03*
D13*
X146260000Y-168055000D03*
X146260000Y-167405000D03*
X146260000Y-166755000D03*
X146260000Y-166105000D03*
X146260000Y-165455000D03*
X146260000Y-164805000D03*
X146260000Y-164155000D03*
X146260000Y-163505000D03*
X146260000Y-162855000D03*
X146260000Y-162205000D03*
X146260000Y-161555000D03*
X146260000Y-160905000D03*
X146260000Y-160255000D03*
X146260000Y-159605000D03*
X153460000Y-159605000D03*
X153460000Y-160255000D03*
X153460000Y-160905000D03*
X153460000Y-161555000D03*
X153460000Y-162205000D03*
X153460000Y-162855000D03*
X153460000Y-163505000D03*
X153460000Y-164155000D03*
X153460000Y-164805000D03*
X153460000Y-165455000D03*
X153460000Y-166105000D03*
X153460000Y-166755000D03*
X153460000Y-167405000D03*
X153460000Y-168055000D03*
D14*
X163741100Y-154673300D03*
X162241100Y-154673300D03*
D15*
X158902400Y-150469600D03*
X161442400Y-150469600D03*
D16*
X163982400Y-150469600D03*
D17*
X155083200Y-199637200D03*
X147583200Y-196137200D03*
X147583200Y-179737200D03*
X155083200Y-179737200D03*
X140325800Y-179889600D03*
X132825800Y-179889600D03*
X132825800Y-196289600D03*
X140325800Y-199789600D03*
D18*
X187756800Y-171881800D03*
X185216800Y-171881800D03*
X182676800Y-171881800D03*
X180136800Y-171881800D03*
X177596800Y-171881800D03*
D19*
X175056800Y-171881800D03*
D20*
X180467000Y-160413000D03*
X180467000Y-161913000D03*
X178677000Y-152388000D03*
X178677000Y-150888000D03*
X180187600Y-152386600D03*
X180187600Y-153886600D03*
X178714400Y-155474800D03*
X178714400Y-153974800D03*
X178841400Y-158914400D03*
X178841400Y-160414400D03*
X178866800Y-163462400D03*
X178866800Y-161962400D03*
D14*
X176695800Y-162102800D03*
X175195800Y-162102800D03*
X175195800Y-160426400D03*
X176695800Y-160426400D03*
X175769400Y-152374600D03*
X174269400Y-152374600D03*
X174306800Y-154127200D03*
X175806800Y-154127200D03*
D17*
X185410800Y-179737200D03*
X177910800Y-179737200D03*
X177910800Y-196137200D03*
X185410800Y-199637200D03*
D21*
X185978800Y-163418400D03*
X185978800Y-159918400D03*
X185851800Y-151310400D03*
X185851800Y-154810400D03*
D11*
X167386000Y-157865600D03*
X167386000Y-157215600D03*
X167386000Y-156565600D03*
X167386000Y-155915600D03*
X171786000Y-155915600D03*
X171786000Y-156565600D03*
X171786000Y-157215600D03*
X171786000Y-157865600D03*
D22*
X178902400Y-208026000D03*
X173902400Y-208026000D03*
X168902400Y-208026000D03*
X163902400Y-208026000D03*
X158902400Y-208026000D03*
X153902400Y-208026000D03*
X148902400Y-208026000D03*
X143902400Y-208026000D03*
D17*
X170120000Y-179737200D03*
X162620000Y-179737200D03*
X162620000Y-196137200D03*
X170120000Y-199637200D03*
D23*
X168820400Y-162191700D03*
X170320400Y-162191700D03*
D20*
X155727400Y-167818500D03*
X155727400Y-166318500D03*
D24*
X152911300Y-170345100D03*
X154911300Y-170345100D03*
D11*
X167944800Y-152267200D03*
X167944800Y-151617200D03*
X167944800Y-150967200D03*
X167944800Y-150317200D03*
X172344800Y-150317200D03*
X172344800Y-150967200D03*
X172344800Y-151617200D03*
X172344800Y-152267200D03*
D25*
X151434800Y-150901400D03*
D16*
X153974800Y-150901400D03*
D14*
X181140800Y-175818800D03*
X179640800Y-175818800D03*
D26*
X143690000Y-171450000D03*
X140790000Y-171450000D03*
D17*
X137209800Y-168102800D03*
X137209800Y-156102800D03*
D27*
X139909800Y-160832800D03*
X139909800Y-163372800D03*
X141909800Y-163372800D03*
X141909800Y-160832800D03*
D25*
X148285200Y-150952200D03*
D16*
X145745200Y-150952200D03*
D28*
X167182800Y-159715200D03*
X167182800Y-161215200D03*
D23*
X170282300Y-159715200D03*
X168782300Y-159715200D03*
X148246400Y-157607000D03*
X149746400Y-157607000D03*
X184671400Y-168935400D03*
X183171400Y-168935400D03*
D14*
X161100200Y-154660600D03*
X159600200Y-154660600D03*
X154583700Y-156235400D03*
X156083700Y-156235400D03*
X146622200Y-156286200D03*
X145122200Y-156286200D03*
D29*
X157594300Y-165608000D03*
X157416500Y-157276800D03*
X177190400Y-168300400D03*
X164642800Y-153949400D03*
X150825200Y-156159200D03*
X161112200Y-162052000D03*
X161950400Y-161188400D03*
X151320500Y-170751500D03*
X155321000Y-162471100D03*
X144741900Y-169418000D03*
X160422797Y-155807973D03*
X165105637Y-157430037D03*
X170281600Y-156883100D03*
X171170600Y-160985200D03*
X179971700Y-163588700D03*
X178879500Y-156972000D03*
X178308000Y-149428200D03*
X170766600Y-150342600D03*
X157378400Y-169418000D03*
X149250400Y-163499800D03*
X147916899Y-162255200D03*
X170103800Y-151447500D03*
D30*
X157594300Y-165608000D02*
X156883800Y-166318500D01*
X156883800Y-166318500D02*
X155727400Y-166318500D01*
X157416500Y-157729500D02*
X157416500Y-157276800D01*
X158599200Y-158412200D02*
X158099200Y-158412200D01*
X158099200Y-158412200D02*
X157416500Y-157729500D01*
X163741100Y-154673300D02*
X163741100Y-154873300D01*
X163741100Y-154873300D02*
X160202200Y-158412200D01*
X160202200Y-158412200D02*
X159552800Y-158412200D01*
X159552800Y-158412200D02*
X158599200Y-158412200D01*
X177190400Y-168300400D02*
X177190400Y-171475400D01*
X177190400Y-171475400D02*
X177596800Y-171881800D01*
X164604700Y-154288300D02*
X164604700Y-153987500D01*
X164604700Y-153987500D02*
X164642800Y-153949400D01*
X163741100Y-154673300D02*
X164219700Y-154673300D01*
X164219700Y-154673300D02*
X164604700Y-154288300D01*
X155123800Y-166318500D02*
X154911300Y-166531000D01*
X154911300Y-166531000D02*
X154911300Y-170345100D01*
X154563600Y-166105000D02*
X153460000Y-166105000D01*
X155727400Y-166318500D02*
X155123800Y-166318500D01*
X155123800Y-166318500D02*
X154910300Y-166105000D01*
X154910300Y-166105000D02*
X154563600Y-166105000D01*
X179640800Y-175818800D02*
X179640800Y-173925800D01*
X179640800Y-173925800D02*
X177596800Y-171881800D01*
X158599200Y-158412200D02*
X158599200Y-150772800D01*
X158599200Y-150772800D02*
X158902400Y-150469600D01*
X137209800Y-168102800D02*
X137209800Y-170011988D01*
X137209800Y-170011988D02*
X138647812Y-171450000D01*
X140111400Y-171450000D02*
X140790000Y-171450000D01*
X138647812Y-171450000D02*
X140111400Y-171450000D01*
X158599200Y-159062200D02*
X157678112Y-159062200D01*
X157678112Y-159062200D02*
X156083700Y-157467788D01*
X156083700Y-157467788D02*
X156083700Y-156914000D01*
X156083700Y-156914000D02*
X156083700Y-156235400D01*
X150825200Y-156159200D02*
X146749200Y-156159200D01*
X146749200Y-156159200D02*
X146622200Y-156286200D01*
X164499200Y-162312200D02*
X161372400Y-162312200D01*
X161372400Y-162312200D02*
X161112200Y-162052000D01*
X156404000Y-158470600D02*
X152831458Y-158470600D01*
X152216699Y-159085359D02*
X152216699Y-167924641D01*
X152831458Y-158470600D02*
X152216699Y-159085359D01*
X152216699Y-167924641D02*
X152347058Y-168055000D01*
X152347058Y-168055000D02*
X152356400Y-168055000D01*
X152356400Y-168055000D02*
X153460000Y-168055000D01*
X158599200Y-159712200D02*
X157645600Y-159712200D01*
X157645600Y-159712200D02*
X156404000Y-158470600D01*
X171577000Y-170157488D02*
X171577000Y-170764942D01*
X171577000Y-170764942D02*
X177449159Y-176637101D01*
X180259101Y-176563441D02*
X180259101Y-173206182D01*
X177449159Y-176637101D02*
X180185441Y-176637101D01*
X180185441Y-176637101D02*
X180259101Y-176563441D01*
X180259101Y-173206182D02*
X180136800Y-173083881D01*
X180136800Y-173083881D02*
X180136800Y-171881800D01*
X165452800Y-160362200D02*
X166314499Y-161223899D01*
X166314499Y-161223899D02*
X166314499Y-164894987D01*
X166314499Y-164894987D02*
X171577000Y-170157488D01*
X165452800Y-160362200D02*
X164499200Y-160362200D01*
X182676800Y-171881800D02*
X182676800Y-169430000D01*
X182676800Y-169430000D02*
X183171400Y-168935400D01*
X182676800Y-171881800D02*
X182676800Y-174761400D01*
X182676800Y-174761400D02*
X181619400Y-175818800D01*
X181619400Y-175818800D02*
X181140800Y-175818800D01*
X161950400Y-161188400D02*
X163347400Y-161188400D01*
X163347400Y-161188400D02*
X163523600Y-161012200D01*
X163523600Y-161012200D02*
X163545600Y-161012200D01*
X163545600Y-161012200D02*
X164499200Y-161012200D01*
X156438600Y-164973000D02*
X155956600Y-165455000D01*
X155956600Y-165455000D02*
X153460000Y-165455000D01*
X156438600Y-161569200D02*
X156438600Y-164973000D01*
X158599200Y-160362200D02*
X157645600Y-160362200D01*
X157645600Y-160362200D02*
X156438600Y-161569200D01*
X168782300Y-159715200D02*
X167182800Y-159715200D01*
X167182800Y-159715200D02*
X166529800Y-159062200D01*
X166529800Y-159062200D02*
X164499200Y-159062200D01*
X168820400Y-162191700D02*
X168159300Y-162191700D01*
X168159300Y-162191700D02*
X167182800Y-161215200D01*
X167182800Y-161215200D02*
X165679800Y-159712200D01*
X165679800Y-159712200D02*
X164499200Y-159712200D01*
X172344800Y-151617200D02*
X172344800Y-150967200D01*
X152911300Y-170345100D02*
X151726900Y-170345100D01*
X151726900Y-170345100D02*
X151320500Y-170751500D01*
X155727400Y-167818500D02*
X155727400Y-167843500D01*
X155727400Y-167843500D02*
X157301900Y-169418000D01*
X157301900Y-169418000D02*
X157378400Y-169418000D01*
X149746400Y-157607000D02*
X149746400Y-160718500D01*
X149746400Y-160718500D02*
X149746400Y-163003800D01*
X146260000Y-161555000D02*
X147414153Y-161555000D01*
X147414153Y-161555000D02*
X148250653Y-160718500D01*
X148250653Y-160718500D02*
X149746400Y-160718500D01*
X149746400Y-163003800D02*
X149250400Y-163499800D01*
X155321000Y-163406942D02*
X155321000Y-162471100D01*
X153460000Y-164155000D02*
X154572942Y-164155000D01*
X154572942Y-164155000D02*
X155321000Y-163406942D01*
X146260000Y-166755000D02*
X145147058Y-166755000D01*
X145147058Y-166755000D02*
X144741900Y-167160158D01*
X144741900Y-167160158D02*
X144741900Y-169418000D01*
X144741900Y-171076700D02*
X144741900Y-169418000D01*
X143690000Y-171450000D02*
X144368600Y-171450000D01*
X144368600Y-171450000D02*
X144741900Y-171076700D01*
X146260000Y-166755000D02*
X146260000Y-166105000D01*
X160128100Y-155867100D02*
X160422797Y-155807973D01*
X160299400Y-155867100D02*
X160363670Y-155867100D01*
X160363670Y-155867100D02*
X160422797Y-155807973D01*
X159600200Y-154660600D02*
X159600200Y-155339200D01*
X159600200Y-155339200D02*
X160128100Y-155867100D01*
X164499200Y-157958600D02*
X165105637Y-157430037D01*
X165066700Y-157391100D02*
X165105637Y-157430037D01*
X164499200Y-158412200D02*
X164499200Y-157958600D01*
X171786000Y-156883100D02*
X171786000Y-156565600D01*
X171786000Y-157215600D02*
X171786000Y-156883100D01*
X171786000Y-156883100D02*
X170281600Y-156883100D01*
X171170600Y-160985200D02*
X171170600Y-160603500D01*
X171170600Y-160603500D02*
X170282300Y-159715200D01*
X170923300Y-160985200D02*
X171170600Y-160985200D01*
X170320400Y-162191700D02*
X170320400Y-161588100D01*
X170320400Y-161588100D02*
X170923300Y-160985200D01*
X179845400Y-163462400D02*
X179971700Y-163588700D01*
X178866800Y-163462400D02*
X179845400Y-163462400D01*
X178841400Y-158914400D02*
X178841400Y-157010100D01*
X178841400Y-157010100D02*
X178879500Y-156972000D01*
X178879500Y-156268500D02*
X178879500Y-156972000D01*
X178714400Y-155474800D02*
X178714400Y-156103400D01*
X178714400Y-156103400D02*
X178879500Y-156268500D01*
X178308000Y-149890400D02*
X178308000Y-149428200D01*
X178677000Y-150888000D02*
X178677000Y-150259400D01*
X178677000Y-150259400D02*
X178308000Y-149890400D01*
X172344800Y-150967200D02*
X171391200Y-150967200D01*
X171391200Y-150967200D02*
X170766600Y-150342600D01*
X185216800Y-171881800D02*
X185216800Y-169480800D01*
X185216800Y-169480800D02*
X184671400Y-168935400D01*
X157480000Y-167640000D02*
X157480000Y-169316400D01*
X157480000Y-169316400D02*
X157378400Y-169418000D01*
X146260000Y-163505000D02*
X149245200Y-163505000D01*
X149245200Y-163505000D02*
X149250400Y-163499800D01*
X145745200Y-150952200D02*
X145745200Y-156141800D01*
X145745200Y-156141800D02*
X145600800Y-156286200D01*
X145600800Y-156286200D02*
X145122200Y-156286200D01*
X153974800Y-150901400D02*
X153974800Y-156105100D01*
X153974800Y-156105100D02*
X154105100Y-156235400D01*
X154105100Y-156235400D02*
X154583700Y-156235400D01*
X146260000Y-160905000D02*
X147363600Y-160905000D01*
X147363600Y-160905000D02*
X148246400Y-160022200D01*
X148246400Y-160022200D02*
X148246400Y-158210600D01*
X148246400Y-158210600D02*
X148246400Y-157607000D01*
X178714400Y-153974800D02*
X175959200Y-153974800D01*
X175959200Y-153974800D02*
X175806800Y-154127200D01*
X180187600Y-153886600D02*
X178802600Y-153886600D01*
X178802600Y-153886600D02*
X178714400Y-153974800D01*
X185851800Y-154810400D02*
X181086400Y-154810400D01*
X180187600Y-153911600D02*
X180187600Y-153886600D01*
X181086400Y-154810400D02*
X180187600Y-153911600D01*
X172344800Y-152267200D02*
X174162000Y-152267200D01*
X174162000Y-152267200D02*
X174269400Y-152374600D01*
X177012600Y-152388000D02*
X176999200Y-152374600D01*
X176999200Y-152374600D02*
X175769400Y-152374600D01*
X178677000Y-152388000D02*
X177012600Y-152388000D01*
X180187600Y-152386600D02*
X178678400Y-152386600D01*
X178678400Y-152386600D02*
X178677000Y-152388000D01*
X185851800Y-151310400D02*
X181238800Y-151310400D01*
X181238800Y-151310400D02*
X180187600Y-152361600D01*
X180187600Y-152361600D02*
X180187600Y-152386600D01*
X178841400Y-160414400D02*
X176707800Y-160414400D01*
X176707800Y-160414400D02*
X176695800Y-160426400D01*
X180467000Y-160413000D02*
X178842800Y-160413000D01*
X178842800Y-160413000D02*
X178841400Y-160414400D01*
X185978800Y-159918400D02*
X180961600Y-159918400D01*
X180961600Y-159918400D02*
X180467000Y-160413000D01*
X171786000Y-157865600D02*
X172286000Y-157865600D01*
X172286000Y-157865600D02*
X174846800Y-160426400D01*
X174846800Y-160426400D02*
X175195800Y-160426400D01*
X178866800Y-161962400D02*
X176836200Y-161962400D01*
X176836200Y-161962400D02*
X176695800Y-162102800D01*
X180467000Y-161913000D02*
X184473400Y-161913000D01*
X184473400Y-161913000D02*
X185978800Y-163418400D01*
X178866800Y-161962400D02*
X180417600Y-161962400D01*
X180417600Y-161962400D02*
X180467000Y-161913000D01*
X167386000Y-157865600D02*
X169870642Y-157865600D01*
X169870642Y-157865600D02*
X174107842Y-162102800D01*
X174107842Y-162102800D02*
X174717200Y-162102800D01*
X174717200Y-162102800D02*
X175195800Y-162102800D01*
X172567600Y-154127200D02*
X170707600Y-152267200D01*
X170707600Y-152267200D02*
X167944800Y-152267200D01*
X174306800Y-154127200D02*
X172567600Y-154127200D01*
X163003800Y-169062400D02*
X166660542Y-169062400D01*
X164999200Y-164262200D02*
X164499200Y-164262200D01*
X166660542Y-169062400D02*
X167038301Y-168684641D01*
X167038301Y-168684641D02*
X167038301Y-166301301D01*
X167038301Y-166301301D02*
X164999200Y-164262200D01*
X162560000Y-167640000D02*
X162560000Y-168618600D01*
X162560000Y-168618600D02*
X163003800Y-169062400D01*
X158599200Y-164262200D02*
X160902200Y-164262200D01*
X160902200Y-164262200D02*
X163830000Y-167190000D01*
X163830000Y-167190000D02*
X163830000Y-167640000D01*
X158599200Y-163612200D02*
X161522200Y-163612200D01*
X161522200Y-163612200D02*
X165100000Y-167190000D01*
X165100000Y-167190000D02*
X165100000Y-167640000D01*
X158599200Y-162962200D02*
X161586258Y-162962200D01*
X161586258Y-162962200D02*
X165145757Y-166521699D01*
X165145757Y-166521699D02*
X165701699Y-166521699D01*
X165701699Y-166521699D02*
X166370000Y-167190000D01*
X166370000Y-167190000D02*
X166370000Y-167640000D01*
X162560000Y-173040000D02*
X162560000Y-172590000D01*
X161891699Y-171921699D02*
X145181243Y-171921699D01*
X162560000Y-172590000D02*
X161891699Y-171921699D01*
X145181243Y-171921699D02*
X137213342Y-179889600D01*
X137213342Y-179889600D02*
X134734988Y-179889600D01*
X134734988Y-179889600D02*
X132825800Y-179889600D01*
X148562812Y-182626000D02*
X154694000Y-182626000D01*
X154694000Y-182626000D02*
X163830000Y-173490000D01*
X163830000Y-173490000D02*
X163830000Y-173040000D01*
X147583200Y-179737200D02*
X147583200Y-181646388D01*
X147583200Y-181646388D02*
X148562812Y-182626000D01*
X162620000Y-179737200D02*
X165100000Y-177257200D01*
X165100000Y-177257200D02*
X165100000Y-173040000D01*
X177910800Y-179737200D02*
X172617200Y-179737200D01*
X172617200Y-179737200D02*
X166370000Y-173490000D01*
X166370000Y-173490000D02*
X166370000Y-173040000D01*
X161100200Y-154660600D02*
X162228400Y-154660600D01*
X162228400Y-154660600D02*
X162241100Y-154673300D01*
X161442400Y-150469600D02*
X161442400Y-154318400D01*
X161442400Y-154318400D02*
X161100200Y-154660600D01*
X141909800Y-160832800D02*
X142984602Y-160832800D01*
X142984602Y-160832800D02*
X143562402Y-160255000D01*
X143562402Y-160255000D02*
X145156400Y-160255000D01*
X145156400Y-160255000D02*
X146260000Y-160255000D01*
X139909800Y-160832800D02*
X141137600Y-159605000D01*
X141137600Y-159605000D02*
X146260000Y-159605000D01*
X147482200Y-162855000D02*
X147916899Y-162420301D01*
X147916899Y-162420301D02*
X147916899Y-162255200D01*
X146260000Y-162855000D02*
X147482200Y-162855000D01*
X167944800Y-151617200D02*
X166991200Y-151617200D01*
X166851499Y-151756901D02*
X166851499Y-152786841D01*
X168479301Y-154414643D02*
X168479301Y-157085241D01*
X166991200Y-151617200D02*
X166851499Y-151756901D01*
X166851499Y-152786841D02*
X168479301Y-154414643D01*
X168479301Y-157085241D02*
X168348942Y-157215600D01*
X168348942Y-157215600D02*
X168339600Y-157215600D01*
X168339600Y-157215600D02*
X167386000Y-157215600D01*
X170103800Y-151447500D02*
X169934100Y-151617200D01*
X169934100Y-151617200D02*
X167944800Y-151617200D01*
X155083200Y-179737200D02*
X155083200Y-174908200D01*
X155083200Y-174908200D02*
X156951400Y-173040000D01*
X156951400Y-173040000D02*
X157480000Y-173040000D01*
X141909800Y-163372800D02*
X142984602Y-163372800D01*
X142984602Y-163372800D02*
X143502402Y-162855000D01*
X143502402Y-162855000D02*
X145156400Y-162855000D01*
X145156400Y-162855000D02*
X146260000Y-162855000D01*
X167386000Y-156565600D02*
X164820600Y-156565600D01*
X159594655Y-162312200D02*
X159552800Y-162312200D01*
X164820600Y-156565600D02*
X160175111Y-161211089D01*
X160175111Y-161211089D02*
X160175111Y-161731744D01*
X160175111Y-161731744D02*
X159594655Y-162312200D01*
X159552800Y-162312200D02*
X158599200Y-162312200D01*
X167386000Y-156565600D02*
X167386000Y-155915600D01*
X165811200Y-151497200D02*
X165811200Y-153966142D01*
X159562143Y-161662200D02*
X159552800Y-161662200D01*
X165811200Y-153966142D02*
X159692501Y-160084841D01*
X159692501Y-160084841D02*
X159692501Y-161531842D01*
X159692501Y-161531842D02*
X159562143Y-161662200D01*
X159552800Y-161662200D02*
X158599200Y-161662200D01*
X167944800Y-150317200D02*
X166991200Y-150317200D01*
X166991200Y-150317200D02*
X165811200Y-151497200D01*
X167944800Y-150967200D02*
X167944800Y-150317200D01*
D31*
G36*
X139115800Y-155494405D02*
X138918582Y-155018278D01*
X138615393Y-154876812D01*
X137389405Y-156102800D01*
X138615393Y-157328788D01*
X138918582Y-157187322D01*
X139115800Y-156677605D01*
X139115800Y-157671162D01*
X137235352Y-159106241D01*
X137202582Y-159143411D01*
X137185400Y-159207200D01*
X137185400Y-165201600D01*
X137195067Y-165250201D01*
X137222597Y-165291403D01*
X137247059Y-165310502D01*
X138963400Y-166340307D01*
X138963400Y-167126478D01*
X138918582Y-167018278D01*
X138615393Y-166876812D01*
X137389405Y-168102800D01*
X138615393Y-169328788D01*
X138918582Y-169187322D01*
X138963400Y-169071488D01*
X138963400Y-170205400D01*
X129514310Y-170205400D01*
X129512716Y-169508393D01*
X135983812Y-169508393D01*
X136125278Y-169811582D01*
X136861755Y-170096537D01*
X137651218Y-170077964D01*
X138294322Y-169811582D01*
X138435788Y-169508393D01*
X137209800Y-168282405D01*
X135983812Y-169508393D01*
X129512716Y-169508393D01*
X129508703Y-167754755D01*
X135216063Y-167754755D01*
X135234636Y-168544218D01*
X135501018Y-169187322D01*
X135804207Y-169328788D01*
X137030195Y-168102800D01*
X135804207Y-166876812D01*
X135501018Y-167018278D01*
X135216063Y-167754755D01*
X129508703Y-167754755D01*
X129506283Y-166697207D01*
X135983812Y-166697207D01*
X137209800Y-167923195D01*
X138435788Y-166697207D01*
X138294322Y-166394018D01*
X137557845Y-166109063D01*
X136768382Y-166127636D01*
X136125278Y-166394018D01*
X135983812Y-166697207D01*
X129506283Y-166697207D01*
X129485256Y-157508393D01*
X135983812Y-157508393D01*
X136125278Y-157811582D01*
X136861755Y-158096537D01*
X137651218Y-158077964D01*
X138294322Y-157811582D01*
X138435788Y-157508393D01*
X137209800Y-156282405D01*
X135983812Y-157508393D01*
X129485256Y-157508393D01*
X129481243Y-155754755D01*
X135216063Y-155754755D01*
X135234636Y-156544218D01*
X135501018Y-157187322D01*
X135804207Y-157328788D01*
X137030195Y-156102800D01*
X135804207Y-154876812D01*
X135501018Y-155018278D01*
X135216063Y-155754755D01*
X129481243Y-155754755D01*
X129478823Y-154697207D01*
X135983812Y-154697207D01*
X137209800Y-155923195D01*
X138435788Y-154697207D01*
X138294322Y-154394018D01*
X137557845Y-154109063D01*
X136768382Y-154127636D01*
X136125278Y-154394018D01*
X135983812Y-154697207D01*
X129478823Y-154697207D01*
X129464091Y-148259800D01*
X139115800Y-148259800D01*
X139115800Y-155494405D01*
X139115800Y-155494405D01*
G37*
X139115800Y-155494405D02*
X138918582Y-155018278D01*
X138615393Y-154876812D01*
X137389405Y-156102800D01*
X138615393Y-157328788D01*
X138918582Y-157187322D01*
X139115800Y-156677605D01*
X139115800Y-157671162D01*
X137235352Y-159106241D01*
X137202582Y-159143411D01*
X137185400Y-159207200D01*
X137185400Y-165201600D01*
X137195067Y-165250201D01*
X137222597Y-165291403D01*
X137247059Y-165310502D01*
X138963400Y-166340307D01*
X138963400Y-167126478D01*
X138918582Y-167018278D01*
X138615393Y-166876812D01*
X137389405Y-168102800D01*
X138615393Y-169328788D01*
X138918582Y-169187322D01*
X138963400Y-169071488D01*
X138963400Y-170205400D01*
X129514310Y-170205400D01*
X129512716Y-169508393D01*
X135983812Y-169508393D01*
X136125278Y-169811582D01*
X136861755Y-170096537D01*
X137651218Y-170077964D01*
X138294322Y-169811582D01*
X138435788Y-169508393D01*
X137209800Y-168282405D01*
X135983812Y-169508393D01*
X129512716Y-169508393D01*
X129508703Y-167754755D01*
X135216063Y-167754755D01*
X135234636Y-168544218D01*
X135501018Y-169187322D01*
X135804207Y-169328788D01*
X137030195Y-168102800D01*
X135804207Y-166876812D01*
X135501018Y-167018278D01*
X135216063Y-167754755D01*
X129508703Y-167754755D01*
X129506283Y-166697207D01*
X135983812Y-166697207D01*
X137209800Y-167923195D01*
X138435788Y-166697207D01*
X138294322Y-166394018D01*
X137557845Y-166109063D01*
X136768382Y-166127636D01*
X136125278Y-166394018D01*
X135983812Y-166697207D01*
X129506283Y-166697207D01*
X129485256Y-157508393D01*
X135983812Y-157508393D01*
X136125278Y-157811582D01*
X136861755Y-158096537D01*
X137651218Y-158077964D01*
X138294322Y-157811582D01*
X138435788Y-157508393D01*
X137209800Y-156282405D01*
X135983812Y-157508393D01*
X129485256Y-157508393D01*
X129481243Y-155754755D01*
X135216063Y-155754755D01*
X135234636Y-156544218D01*
X135501018Y-157187322D01*
X135804207Y-157328788D01*
X137030195Y-156102800D01*
X135804207Y-154876812D01*
X135501018Y-155018278D01*
X135216063Y-155754755D01*
X129481243Y-155754755D01*
X129478823Y-154697207D01*
X135983812Y-154697207D01*
X137209800Y-155923195D01*
X138435788Y-154697207D01*
X138294322Y-154394018D01*
X137557845Y-154109063D01*
X136768382Y-154127636D01*
X136125278Y-154394018D01*
X135983812Y-154697207D01*
X129478823Y-154697207D01*
X129464091Y-148259800D01*
X139115800Y-148259800D01*
X139115800Y-155494405D01*
M02*
